<svg width="707" height="634" viewBox="0 0 707 634" fill="none" xmlns="http://www.w3.org/2000/svg">
<g filter="url(#filter0_d_6_143)">
<rect x="332.507" y="181.725" width="12.7887" height="11.5838" rx="5.7919" fill="url(#paint0_linear_6_143)"/>
</g>
<g filter="url(#filter1_d_6_143)">
<rect x="678.655" y="330.769" width="12.7887" height="11.5838" rx="5.7919" fill="url(#paint1_linear_6_143)"/>
</g>
<g filter="url(#filter2_d_6_143)">
<rect x="542.242" y="448.152" width="12.7887" height="11.5838" rx="5.7919" fill="url(#paint2_linear_6_143)"/>
</g>
<g filter="url(#filter3_d_6_143)">
<rect x="299.256" y="438.884" width="26.43" height="23.9398" rx="11.9699" fill="url(#paint3_linear_6_143)"/>
</g>
<g filter="url(#filter4_d_6_143)">
<rect x="534.568" y="403.362" width="15.3465" height="13.9005" rx="6.95027" fill="url(#paint4_linear_6_143)"/>
</g>
<g filter="url(#filter5_d_6_143)">
<rect x="123.625" y="402.588" width="15.3465" height="13.9005" rx="6.95027" fill="url(#paint5_linear_6_143)"/>
</g>
<g filter="url(#filter6_d_6_143)">
<rect x="453.573" y="465.914" width="7.67323" height="6.95027" rx="3.47514" fill="url(#paint6_linear_6_143)"/>
</g>
<path d="M384.058 70.4435C384.058 70.4435 308.818 72.6484 289.775 104.068C271.229 134.666 306.473 192.163 306.473 192.163C306.473 192.163 357.958 268.907 343.765 318.226C319.536 402.423 164.888 315.435 109.667 386.632C48.1698 465.92 143.196 632.892 143.196 632.892" stroke="#FFC819" stroke-width="0.527835"/>
<path d="M630.447 590.743C630.447 590.743 681.928 540.994 670.867 506.58C660.094 473.065 590.286 454.982 590.286 454.982C590.286 454.982 493.971 433.691 465.505 389.727C416.909 314.673 594.169 277.132 577.636 191.421C559.224 95.9676 361.682 38.7632 361.682 38.7632" stroke="#FCC822" stroke-width="0.791752"/>
<ellipse cx="468.919" cy="288.295" rx="5.11549" ry="4.63352" fill="url(#paint7_linear_6_143)"/>
<ellipse cx="494.497" cy="317.396" rx="5.11549" ry="4.63352" fill="url(#paint8_linear_6_143)"/>
<ellipse cx="510.696" cy="317.397" rx="2.55774" ry="2.31676" fill="url(#paint9_linear_6_143)"/>
<circle cx="2.44023" cy="2.44023" r="2.44023" transform="matrix(0.741159 0.671329 -0.741159 0.671329 505.951 324.495)" fill="url(#paint10_linear_6_143)"/>
<ellipse cx="494.222" cy="332.069" rx="2.31676" ry="2.55774" transform="rotate(90 494.222 332.069)" fill="url(#paint11_linear_6_143)"/>
<circle cx="2.44023" cy="2.44023" r="2.44023" transform="matrix(-0.741159 0.671329 -0.741159 -0.671329 486.385 327.772)" fill="url(#paint12_linear_6_143)"/>
<ellipse cx="478.298" cy="317.397" rx="2.55774" ry="2.31676" fill="url(#paint13_linear_6_143)"/>
<circle cx="2.44023" cy="2.44023" r="2.44023" transform="matrix(0.741159 0.671329 -0.741159 0.671329 483.043 303.745)" fill="url(#paint14_linear_6_143)"/>
<ellipse cx="494.222" cy="302.724" rx="2.31676" ry="2.55774" transform="rotate(90 494.222 302.724)" fill="url(#paint15_linear_6_143)"/>
<circle cx="2.44023" cy="2.44023" r="2.44023" transform="matrix(-0.741159 0.671329 -0.741159 -0.671329 509.294 307.021)" fill="url(#paint16_linear_6_143)"/>
<path d="M439.273 438.463L443.732 439.186C448.47 439.951 451.622 444.051 450.776 448.341L449.958 452.484C449.112 456.774 444.586 459.631 439.851 458.865L435.391 458.142C430.655 457.376 427.501 453.276 428.347 448.986L429.165 444.844C430.011 440.553 434.537 437.696 439.273 438.463ZM468.939 326.982C480.525 328.857 488.549 334.041 493.012 342.528C496.565 349.233 497.553 356.588 495.972 364.597C493.329 377.993 484.118 389.648 468.34 399.562C462.838 403.018 459.384 407.518 457.974 413.062C457.453 414.901 456.967 416.96 456.519 419.239C455.672 423.529 451.146 426.385 446.41 425.618L441.95 424.896C437.214 424.129 434.061 420.03 434.906 415.74V415.739C437.319 403.517 442.426 394.977 450.229 390.111C458.662 384.849 464.878 379.052 468.883 372.716C471.184 369.028 472.764 365.008 473.623 360.658C474.508 356.17 474.097 352.47 472.391 349.556C470.535 346.194 467.23 344.411 462.472 344.21C458.031 343.992 454.366 346.213 451.481 350.876C451.335 351.101 451.193 351.332 451.054 351.567C449.009 355.013 444.465 356.564 440.41 355.22L436.435 353.902C431.514 352.271 429.27 347.088 431.675 342.872C434.062 338.681 437.213 335.125 441.124 332.204C445.364 329.045 450.775 327.14 457.354 326.495C460.806 326.129 464.669 326.289 468.939 326.982Z" fill="#AEDBED"/>
<path d="M269.94 454.994L273.643 455.154C277.576 455.324 280.614 458.35 280.425 461.912L280.245 465.353C280.057 468.915 276.717 471.666 272.784 471.497L269.081 471.337C265.148 471.167 262.111 468.142 262.298 464.579L262.479 461.137C262.666 457.575 266.007 454.825 269.94 454.994ZM281.032 361.679C290.653 362.094 297.769 365.534 302.379 371.997C306.044 377.098 307.702 382.974 307.353 389.625C306.769 400.75 300.65 411.089 288.999 420.643C284.936 423.975 282.657 427.957 282.159 432.591C281.95 434.132 281.796 435.85 281.696 437.743C281.509 441.305 278.169 444.056 274.235 443.887L270.532 443.727C266.598 443.557 263.562 440.532 263.748 436.969C264.282 426.819 267.433 419.398 273.199 414.704C279.429 409.628 283.801 404.329 286.313 398.804C287.751 395.589 288.565 392.177 288.754 388.565C288.951 384.838 288.186 381.873 286.461 379.673C284.564 377.12 281.673 375.99 277.79 376.281C274.159 376.527 271.444 378.68 269.645 382.741C269.553 382.938 269.464 383.139 269.378 383.343C268.121 386.335 264.614 388.028 261.167 387.324L257.787 386.635C253.601 385.781 251.178 381.79 252.637 378.138C254.087 374.507 256.229 371.321 259.064 368.577C262.138 365.607 266.307 363.545 271.572 362.392C274.332 361.765 277.486 361.526 281.032 361.679" fill="#AEDBED"/>
<path d="M335.259 320.723L338.084 320.275C341.083 319.797 343.94 321.613 344.466 324.33L344.975 326.953C345.501 329.669 343.497 332.258 340.497 332.734L337.673 333.183C334.675 333.661 331.816 331.844 331.291 329.128L330.782 326.506C330.256 323.789 332.261 321.2 335.259 320.723ZM326.143 248.624C333.479 247.457 339.491 248.958 344.179 253.125C347.9 256.41 350.253 260.588 351.235 265.658C352.879 274.141 350.2 282.881 343.201 291.881C340.76 295.017 339.787 298.371 340.28 301.943C340.411 303.14 340.617 304.459 340.896 305.901C341.423 308.618 339.418 311.206 336.42 311.683L333.596 312.131C330.596 312.609 327.739 310.793 327.212 308.076C325.713 300.338 326.699 294.256 330.17 289.829C333.918 285.041 336.223 280.371 337.082 275.818C337.564 273.172 337.539 270.472 337.005 267.717C336.456 264.876 335.323 262.758 333.61 261.362C331.701 259.728 329.308 259.319 326.432 260.137C323.741 260.88 322.094 262.921 321.5 266.262C321.466 266.425 321.437 266.589 321.411 266.758C321.023 269.208 318.694 271.025 315.961 271.024L313.283 271.022C309.966 271.021 307.389 268.384 307.806 265.404C308.22 262.443 309.239 259.71 310.863 257.205C312.626 254.49 315.385 252.294 319.14 250.615C321.104 249.718 323.438 249.053 326.143 248.624" fill="#AEDBED"/>
<path d="M128.639 397.781L130.513 398.22C132.504 398.686 133.699 400.526 133.184 402.329L132.686 404.069C132.171 405.873 130.139 406.956 128.149 406.489L126.274 406.05C124.283 405.582 123.088 403.743 123.604 401.941L124.102 400.199C124.617 398.396 126.648 397.313 128.639 397.781ZM145.3 351.157C150.169 352.301 153.4 354.746 154.996 358.495C156.268 361.456 156.424 364.62 155.461 367.986C153.852 373.615 149.507 378.309 142.426 382.066C139.958 383.375 138.323 385.19 137.523 387.511C137.235 388.279 136.953 389.14 136.68 390.099C136.164 391.902 134.133 392.985 132.143 392.518L130.269 392.079C128.279 391.612 127.082 389.772 127.598 387.969C129.066 382.832 131.55 379.345 135.052 377.503C138.833 375.509 141.692 373.224 143.627 370.643C144.739 369.14 145.559 367.474 146.08 365.645C146.619 363.76 146.578 362.172 145.956 360.879C145.288 359.391 143.943 358.533 141.923 358.309C140.039 358.082 138.398 358.919 137 360.822C136.929 360.915 136.86 361.009 136.793 361.105C135.797 362.512 133.805 363.037 132.125 362.346L130.48 361.666C128.442 360.825 127.672 358.551 128.85 356.826C130.018 355.111 131.488 353.689 133.259 352.56C135.181 351.339 137.555 350.688 140.382 350.608C141.866 350.554 143.506 350.738 145.3 351.157Z" fill="#AEDBED"/>
<path d="M202.277 405.22L208.063 403.874C214.208 402.444 220.469 405.799 222.048 411.365L223.57 416.739C225.149 422.305 221.446 427.977 215.301 429.406L209.515 430.752C203.37 432.181 197.109 428.828 195.53 423.262L194.007 417.886C192.429 412.32 196.132 406.649 202.277 405.22ZM170.474 256.773C185.506 253.277 198.264 255.515 208.748 263.484C217.063 269.764 222.694 278.099 225.641 288.49C230.568 305.871 226.563 324.419 213.628 344.138C209.118 351.013 207.694 358.124 209.355 365.473C209.841 367.937 210.504 370.648 211.343 373.605C212.92 379.171 209.218 384.842 203.074 386.271L197.286 387.616C191.142 389.046 184.88 385.693 183.303 380.127C178.807 364.269 179.771 351.489 186.191 341.782C193.124 331.289 197.079 321.251 198.052 311.665C198.583 306.099 198.048 300.493 196.448 294.849C194.797 289.028 192.069 284.792 188.261 282.144C184.003 279.03 178.958 278.531 173.129 280.65C167.671 282.589 164.617 287.07 163.974 294.096C163.937 294.437 163.905 294.786 163.88 295.139C163.51 300.285 158.998 304.399 153.32 304.797L147.754 305.187C140.866 305.672 135.042 300.569 135.375 294.316C135.707 288.105 137.336 282.277 140.263 276.835C143.439 270.941 148.779 265.974 156.281 261.936C160.203 259.785 164.933 258.062 170.474 256.773" fill="#AEDBED"/>
<path d="M580.969 408.681L585.058 407.73C589.4 406.719 593.824 409.09 594.94 413.023L596.016 416.822C597.132 420.755 594.516 424.762 590.173 425.772L586.083 426.724C581.741 427.734 577.317 425.363 576.202 421.431L575.125 417.631C574.01 413.699 576.625 409.691 580.969 408.681ZM558.495 303.777C569.117 301.307 578.134 302.888 585.541 308.52C591.418 312.957 595.398 318.848 597.48 326.19C600.961 338.472 598.131 351.581 588.991 365.516C585.803 370.373 584.797 375.398 585.972 380.592C586.314 382.334 586.783 384.25 587.375 386.339C588.49 390.272 585.873 394.279 581.532 395.289L577.442 396.24C573.1 397.251 568.676 394.88 567.561 390.947C564.383 379.742 565.064 370.711 569.601 363.851C574.501 356.437 577.295 349.342 577.984 342.567C578.358 338.634 577.981 334.673 576.85 330.683C575.684 326.57 573.755 323.577 571.065 321.705C568.055 319.506 564.491 319.152 560.372 320.649C556.513 322.019 554.356 325.187 553.902 330.151C553.874 330.394 553.853 330.639 553.834 330.888C553.574 334.526 550.384 337.433 546.372 337.714L542.439 337.991C537.57 338.333 533.455 334.727 533.692 330.308C533.925 325.918 535.076 321.8 537.145 317.953C539.39 313.788 543.164 310.279 548.466 307.426C551.236 305.905 554.579 304.687 558.495 303.777" fill="#AEDBED"/>
<path d="M562.266 234.64L564.526 234.114C566.927 233.556 569.372 234.865 569.988 237.039L570.583 239.139C571.201 241.314 569.753 243.529 567.354 244.086L565.093 244.613C562.692 245.171 560.247 243.861 559.632 241.686L559.036 239.587C558.419 237.413 559.865 235.198 562.266 234.64ZM549.843 176.655C555.715 175.289 560.699 176.163 564.793 179.277C568.042 181.729 570.241 184.985 571.392 189.044C573.316 195.832 571.753 203.078 566.7 210.78C564.939 213.467 564.383 216.243 565.031 219.113C565.22 220.077 565.479 221.135 565.807 222.29C566.423 224.464 564.977 226.679 562.577 227.237L560.317 227.763C557.916 228.321 555.47 227.011 554.854 224.838C553.099 218.643 553.475 213.652 555.983 209.86C558.692 205.761 560.236 201.84 560.616 198.095C560.823 195.922 560.614 193.732 559.989 191.527C559.345 189.253 558.279 187.599 556.79 186.564C555.128 185.349 553.157 185.153 550.88 185.981C548.748 186.738 547.556 188.489 547.305 191.233C547.29 191.367 547.277 191.503 547.267 191.64C547.123 193.651 545.361 195.258 543.143 195.413L540.968 195.566C538.278 195.755 536.004 193.762 536.134 191.319C536.264 188.894 536.9 186.617 538.043 184.492C539.283 182.189 541.369 180.247 544.3 178.672C545.832 177.831 547.679 177.158 549.843 176.655" fill="#AEDBED"/>
<path d="M259.006 270.797C259.006 270.797 272.085 213.041 242.284 215.887L213.795 269.616C213.795 269.616 232.891 276.705 259.006 270.797Z" fill="#361710"/>
<path d="M192.607 270.797C192.607 270.797 185.358 223.962 207.85 212.077L237.818 269.616C237.818 269.616 218.724 276.705 192.607 270.797Z" fill="#361710"/>
<path d="M146.439 257.845H149.907C153.59 257.845 156.576 260.55 156.576 263.885V267.107C156.576 270.444 153.59 273.148 149.907 273.148H146.439C142.756 273.148 139.771 270.444 139.771 267.107V263.885C139.771 260.55 142.756 257.845 146.439 257.845ZM152.22 170.215C161.229 170.215 168.046 173.141 172.67 178.994C176.346 183.612 178.183 189.035 178.183 195.263C178.183 205.681 172.975 215.588 162.559 224.984C158.927 228.259 156.993 232.072 156.756 236.422C156.636 237.871 156.576 239.48 156.576 241.253C156.576 244.59 153.59 247.294 149.907 247.294H146.439C142.756 247.294 139.771 244.59 139.771 241.253C139.771 231.749 142.349 224.689 147.506 220.071C153.078 215.076 156.9 209.949 158.977 204.686C160.161 201.627 160.755 198.405 160.755 195.022C160.755 191.532 159.896 188.794 158.176 186.807C156.279 184.499 153.523 183.558 149.907 183.987C146.528 184.364 144.097 186.485 142.616 190.35C142.539 190.538 142.466 190.729 142.396 190.924C141.368 193.771 138.175 195.493 134.919 194.976L131.727 194.467C127.775 193.837 125.315 190.207 126.499 186.735C127.676 183.286 129.522 180.223 132.034 177.543C134.761 174.645 138.554 172.551 143.417 171.263C145.965 170.565 148.898 170.215 152.22 170.215" fill="#FCC822"/>
<path d="M229.413 495.109C229.413 495.109 227.762 500.886 224.793 500.015C219.243 498.391 218.919 495.109 218.919 495.109C218.919 495.109 215.419 504.668 216.086 509.22C216.752 513.772 216.086 524.007 216.086 524.007H221.151C221.151 524.007 225.889 524.529 227.852 527.116C229.818 529.703 240.579 528.936 243.99 527.276C248.36 525.151 236.891 514.336 232.833 508.31C228.775 502.283 229.413 495.109 229.413 495.109Z" fill="#1C0906"/>
<path d="M219.933 410.04C223.433 402.21 235.92 402.298 238.999 410.27C239.554 411.707 239.956 413.212 240.219 414.734C241.514 422.212 240.214 434.195 236.805 449.5C232.206 470.15 229.72 511.345 221.734 511.951C213.746 512.557 218.441 477.917 218.273 457.435C218.107 436.95 214.544 422.098 219.601 410.786L219.933 410.04Z" fill="#CF9166"/>
<path d="M224.528 469.129C223.436 442.108 225.421 422.064 220.662 407.817L220.35 406.88C217.056 397.02 206.986 398.776 204.977 409.69C204.616 411.656 204.382 413.691 204.26 415.735C203.665 425.759 205.431 441.383 209.098 461.108C214.048 487.722 215.251 512.202 221.733 511.95C228.214 511.699 225.621 496.15 224.528 469.129Z" fill="#EDAC7C"/>
<path d="M215.479 499.861C215.479 499.861 216.891 510.065 220.823 509.448C224.69 508.841 225.971 499.861 225.971 499.861C225.971 499.861 229.472 509.418 228.806 513.97C228.43 516.536 228.478 520.905 228.591 524.232C228.674 526.71 226.479 528.757 223.74 528.757C223.74 528.757 219.003 529.279 217.038 531.866C215.074 534.454 204.312 533.687 200.901 532.027C196.53 529.902 208.001 519.088 212.058 513.061C216.116 507.033 215.479 499.861 215.479 499.861Z" fill="#361710"/>
<path d="M248.985 345.025L223.626 340.867V340.707L223.14 340.787L222.653 340.707V340.867L197.295 345.025C197.295 345.025 188.327 357.123 190.082 371.355C191.836 385.585 199.924 462.549 199.924 462.549H243.579C243.579 462.549 254.443 385.585 256.198 371.355C257.952 357.123 248.985 345.025 248.985 345.025Z" fill="#195172"/>
<path d="M252.007 350.151C250.407 346.946 248.985 345.024 248.985 345.024L223.626 340.865V340.705L223.14 340.786L222.654 340.705V340.865L197.295 345.024C197.295 345.024 195.873 346.946 194.274 350.151H252.007Z" fill="#0D435E"/>
<path d="M228.593 462.548L228.89 385.662L236.159 462.548" fill="#0D435E"/>
<path d="M189.873 366.763C192.333 366.697 196.478 366.254 202.479 364.536C212.999 361.523 213.087 348.944 213.087 348.944L212.806 342.482L197.295 345.026C197.295 345.026 190.194 354.616 189.873 366.763Z" fill="#0D435E"/>
<path d="M256.408 366.764C256.088 354.616 248.986 345.025 248.986 345.025L232.407 342.305L231.984 348.943C231.984 348.943 232.073 361.522 242.593 364.535C249.723 366.578 254.235 366.82 256.408 366.764Z" fill="#0D435E"/>
<path d="M198.711 279.779L216.727 273.147L230.865 273.286L252.955 281.631C252.955 281.631 241.441 317.483 242.199 326.734C242.957 335.985 248.985 346.454 248.985 346.454H198.711C198.711 346.454 207.712 329.958 205.737 320.228C203.759 310.495 198.711 279.779 198.711 279.779Z" fill="#5C93BC"/>
<path d="M240.977 223.729C234.864 213.369 202.547 209.699 196.605 242.27C192.273 266.006 221.755 271.604 236.699 267.257C262.123 259.863 247.092 234.088 240.977 223.729Z" fill="#3E150D"/>
<path d="M246.238 245.764C246.238 245.764 250.807 240.449 255.012 243.941C259.219 247.435 253.208 258.196 245.153 255.664L246.238 245.764Z" fill="#EDAC7C"/>
<path d="M245.828 249.515L245.267 254.612C252.234 255.745 256.21 246.958 253.006 245.74C250.414 244.755 247.198 247.838 245.828 249.515Z" fill="#F7A588"/>
<path d="M254.128 247.561C254.128 247.561 254.115 247.521 254.094 247.448C254.072 247.376 254.034 247.273 253.989 247.143C253.884 246.89 253.705 246.524 253.363 246.262C253.278 246.196 253.179 246.143 253.077 246.099C253.024 246.078 252.972 246.055 252.912 246.039L252.873 246.027L252.871 246.025C252.901 246.035 252.877 246.028 252.883 246.03L252.877 246.028L252.862 246.025L252.835 246.019L252.725 245.992C252.645 245.97 252.585 245.963 252.526 245.954C252.468 245.945 252.405 245.936 252.33 245.933C252.264 245.929 252.195 245.926 252.127 245.927C252.054 245.927 251.985 245.924 251.913 245.933C251.341 245.969 250.736 246.171 250.159 246.451C249.866 246.587 249.587 246.752 249.311 246.918C249.039 247.086 248.771 247.26 248.517 247.436C248.011 247.791 247.55 248.148 247.152 248.456C246.357 249.092 245.828 249.517 245.828 249.517C245.828 249.517 245.896 249.366 246.045 249.116C246.196 248.868 246.423 248.518 246.74 248.126C246.901 247.932 247.076 247.719 247.281 247.508C247.484 247.297 247.71 247.079 247.957 246.866C248.452 246.441 249.032 246.023 249.701 245.699C250.036 245.539 250.391 245.401 250.761 245.307C251.133 245.214 251.523 245.163 251.904 245.176C251.998 245.177 252.091 245.185 252.187 245.197C252.28 245.201 252.37 245.221 252.461 245.239C252.549 245.254 252.64 245.278 252.731 245.306C252.826 245.333 252.913 245.359 252.974 245.389L253.079 245.434L253.146 245.461L253.205 245.49C253.284 245.527 253.355 245.572 253.424 245.619C253.559 245.715 253.677 245.821 253.768 245.933C253.961 246.152 254.055 246.387 254.11 246.591C254.167 246.793 254.173 246.973 254.176 247.115C254.176 247.258 254.157 247.372 254.148 247.447C254.135 247.523 254.128 247.561 254.128 247.561Z" fill="#CF9166"/>
<path d="M203.878 245.349C203.878 245.349 199.437 239.949 195.151 243.357C190.861 246.766 196.615 257.644 204.729 255.27L203.878 245.349Z" fill="#EDAC7C"/>
<path d="M204.2 249.11L204.638 254.217C197.648 255.215 193.882 246.353 197.115 245.197C199.727 244.264 202.871 247.406 204.2 249.11Z" fill="#F7A588"/>
<path d="M195.95 246.994C195.95 246.994 195.962 246.956 195.986 246.883C196.01 246.81 196.05 246.707 196.1 246.578C196.208 246.326 196.395 245.965 196.745 245.709C196.83 245.645 196.929 245.595 197.035 245.552C197.089 245.534 197.141 245.511 197.197 245.496L197.242 245.484L197.245 245.483C197.211 245.494 197.238 245.484 197.231 245.487H197.238L197.251 245.482L197.278 245.476L197.391 245.452C197.468 245.431 197.53 245.425 197.59 245.418C197.648 245.409 197.713 245.404 197.785 245.401C197.853 245.398 197.919 245.395 197.989 245.399C198.06 245.399 198.13 245.4 198.202 245.41C198.771 245.455 199.374 245.668 199.944 245.962C200.232 246.105 200.51 246.272 200.782 246.444C201.049 246.618 201.313 246.798 201.563 246.979C202.06 247.344 202.512 247.709 202.904 248.023C203.683 248.676 204.201 249.11 204.201 249.11C204.201 249.11 204.136 248.959 203.992 248.706C203.85 248.456 203.63 248.1 203.32 247.702C203.166 247.505 202.994 247.288 202.795 247.074C202.596 246.859 202.379 246.636 202.136 246.418C201.651 245.986 201.082 245.555 200.421 245.217C200.091 245.054 199.737 244.908 199.368 244.807C198.999 244.705 198.611 244.647 198.231 244.652C198.134 244.651 198.041 244.659 197.947 244.668C197.853 244.671 197.762 244.686 197.669 244.705C197.583 244.717 197.493 244.739 197.399 244.766C197.306 244.792 197.218 244.816 197.154 244.846L197.049 244.885L196.983 244.913L196.922 244.941C196.842 244.976 196.768 245.02 196.698 245.065C196.563 245.16 196.444 245.262 196.347 245.371C196.15 245.589 196.051 245.822 195.991 246.022C195.929 246.224 195.918 246.403 195.913 246.547C195.909 246.692 195.923 246.805 195.933 246.879C195.943 246.954 195.95 246.994 195.95 246.994Z" fill="#CF9166"/>
<path d="M229.921 262.108L218.453 261.994C218.453 261.994 217.818 278.255 217.776 278.255C217.776 278.255 218.579 281.508 223.666 281.629C228.754 281.749 230.048 278.373 230.048 278.373C230.007 278.284 229.921 262.108 229.921 262.108Z" fill="#EDAC7C"/>
<path d="M230.048 268.094L218.093 267.732C218.093 267.732 218.025 273.716 217.983 273.716C217.983 273.716 218.626 277.519 223.714 277.641C228.802 277.761 229.998 274.267 229.998 274.267C229.958 274.177 230.048 268.094 230.048 268.094Z" fill="#CF9166"/>
<path d="M229.885 265.098L218.417 264.985C218.417 264.985 218.247 267.061 218.094 268.828C218.07 269.083 221.361 269.568 221.718 269.622C224.519 270.052 227.288 269.753 230.027 269.149C229.959 267.34 229.885 265.098 229.885 265.098Z" fill="#CF9166"/>
<path d="M252.087 241.532C251.933 254.485 239.4 264.865 224.095 264.716C208.789 264.567 196.507 253.943 196.66 240.991C196.814 228.035 209.347 217.655 224.654 217.804C239.958 217.954 252.242 228.576 252.087 241.532Z" fill="#3E150D"/>
<path d="M249.144 241.184C248.953 233.966 245.608 227.119 237.769 224.241C233.783 222.776 229.392 222.354 225.107 222.374C220.874 222.396 216.365 222.601 212.37 223.95C205.216 226.371 203.273 222.42 202.47 229.005C202.39 229.649 201.445 232.407 200.476 240.709C200.302 242.189 200.256 243.658 200.299 245.152C200.397 248.508 200.946 251.877 202.117 255.074C203.535 258.953 205.938 262.563 209.465 265.215C211.468 266.723 213.781 267.885 216.238 268.698C220.294 270.037 224.167 270.505 228.433 269.836C231.325 269.384 234.149 268.556 236.699 267.259C240.929 265.106 244.118 261.726 246.131 257.803C247.823 254.502 248.727 250.901 249.087 247.296C249.283 245.323 249.35 243.316 249.16 241.342C249.155 241.289 249.145 241.237 249.144 241.184Z" fill="#EDAC7C"/>
<path d="M232.215 248.012C232.102 250.061 233.696 251.797 235.774 251.889C237.854 251.982 239.629 250.393 239.743 248.343C239.856 246.293 238.264 244.558 236.183 244.466C234.105 244.374 232.327 245.962 232.215 248.012Z" fill="#CF9166"/>
<path d="M232.262 247.145C232.148 249.195 233.742 250.929 235.82 251.023C237.901 251.116 239.676 249.527 239.789 247.478C239.905 245.428 238.311 243.69 236.231 243.599C234.153 243.509 232.375 245.095 232.262 247.145Z" fill="black"/>
<path d="M233.609 246.197C233.568 246.939 234.212 247.572 235.045 247.608C235.88 247.645 236.589 247.074 236.629 246.331C236.671 245.588 236.027 244.958 235.195 244.921C234.361 244.882 233.651 245.455 233.609 246.197Z" fill="white"/>
<path d="M209.766 247.211C209.653 249.261 211.246 250.996 213.324 251.089C215.405 251.182 217.18 249.592 217.293 247.543C217.407 245.494 215.815 243.757 213.735 243.666C211.658 243.576 209.879 245.161 209.766 247.211Z" fill="#CF9166"/>
<path d="M209.814 246.344C209.7 248.395 211.296 250.129 213.373 250.223C215.454 250.314 217.229 248.728 217.342 246.676C217.457 244.628 215.862 242.89 213.783 242.8C211.707 242.709 209.927 244.296 209.814 246.344Z" fill="black"/>
<path d="M211.162 245.396C211.122 246.138 211.762 246.771 212.597 246.807C213.431 246.844 214.141 246.273 214.183 245.529C214.222 244.787 213.581 244.155 212.745 244.119C211.912 244.082 211.203 244.653 211.162 245.396Z" fill="white"/>
<path d="M223.03 244.952C223.03 244.952 223.583 249.464 221.236 249.089C216.695 248.37 216.683 257.184 223.54 253.902C226.128 252.664 225.276 245.013 225.276 245.013L223.03 244.952Z" fill="#F48470"/>
<path d="M218.219 257.871C218.219 257.871 227.356 259.248 231.698 254.506C231.698 254.506 235.348 263.365 225.538 264.503C219.341 265.217 218.219 257.871 218.219 257.871Z" fill="#B43128"/>
<path d="M221.326 263.458C222.364 264.234 223.736 264.709 225.538 264.502C227.763 264.243 229.293 263.587 230.335 262.731C230.634 262.472 230.899 262.196 231.141 261.908C231.147 261.902 231.153 261.895 231.157 261.889C231.162 261.884 231.162 261.882 231.165 261.879C231.912 260.921 232.234 259.823 232.329 258.772C226.816 257.465 222.865 261.369 221.326 263.458Z" fill="#F05736"/>
<path d="M218.219 257.872C218.219 257.872 218.231 257.935 218.251 258.047C219.141 258.213 220.787 259.964 223.003 259.895C224.405 259.852 225.78 259.501 227.041 258.964C227.824 258.631 228.632 258.309 229.309 257.818C229.828 257.442 230.201 256.33 230.42 255.642C225.788 259.011 218.221 257.872 218.219 257.872Z" fill="white"/>
<path d="M218.83 258.392C219.226 260.049 220.754 264.609 225.476 264.061C228.091 263.761 229.929 262.856 230.938 261.379C232.331 259.34 231.833 256.664 231.473 255.391C227.548 258.918 220.982 258.605 218.83 258.392ZM224.629 264.991C218.867 264.936 217.739 258.007 217.729 257.931C217.707 257.794 217.76 257.654 217.874 257.556C217.988 257.459 218.145 257.413 218.303 257.437C218.391 257.449 227.21 258.713 231.313 254.227C231.425 254.106 231.603 254.043 231.78 254.071C231.957 254.097 232.103 254.205 232.165 254.356C232.237 254.53 233.918 258.709 231.791 261.835C230.618 263.554 228.536 264.601 225.603 264.939C225.262 264.979 224.941 264.995 224.629 264.991Z" fill="#F05B4E"/>
<path d="M214.664 257.388C214.642 259.28 212.902 260.797 210.778 260.775C208.653 260.755 206.947 259.204 206.968 257.312C206.992 255.421 208.733 253.905 210.857 253.924C212.982 253.947 214.687 255.496 214.664 257.388Z" fill="#F49B77"/>
<path d="M242.284 255.456C242.261 257.347 240.52 258.865 238.393 258.843C236.271 258.823 234.567 257.274 234.588 255.381C234.612 253.49 236.351 251.974 238.476 251.994C240.6 252.016 242.306 253.566 242.284 255.456Z" fill="#F49B77"/>
<path d="M207.175 237.851C207.175 237.851 207.26 237.709 207.46 237.489C207.56 237.383 207.683 237.245 207.842 237.113C207.996 236.972 208.181 236.825 208.394 236.674C208.607 236.523 208.847 236.372 209.111 236.225C209.378 236.084 209.664 235.933 209.977 235.814C210.281 235.678 210.613 235.573 210.953 235.471C211.293 235.365 211.651 235.306 212.003 235.223C212.36 235.173 212.722 235.123 213.075 235.092C213.431 235.074 213.782 235.066 214.117 235.067C214.457 235.084 214.782 235.11 215.088 235.136C215.397 235.169 215.681 235.233 215.944 235.28C216.204 235.334 216.442 235.379 216.649 235.452C216.855 235.515 217.034 235.578 217.179 235.628C217.467 235.729 217.629 235.802 217.629 235.802C217.629 235.802 217.446 235.824 217.138 235.844C216.984 235.854 216.798 235.869 216.587 235.874C216.38 235.875 216.141 235.9 215.883 235.919C215.628 235.94 215.353 235.94 215.065 235.969C214.776 235.998 214.476 236.024 214.164 236.045C213.854 236.082 213.538 236.125 213.211 236.158C212.893 236.207 212.57 236.256 212.245 236.308C212.083 236.339 211.924 236.373 211.764 236.403C211.602 236.434 211.443 236.458 211.289 236.5C211.132 236.539 210.976 236.574 210.821 236.607C210.665 236.639 210.523 236.69 210.371 236.726C210.071 236.8 209.79 236.89 209.516 236.971C209.378 237.008 209.252 237.061 209.125 237.099C208.997 237.141 208.871 237.177 208.755 237.224C208.52 237.307 208.303 237.386 208.114 237.461C207.918 237.532 207.754 237.606 207.611 237.661C207.479 237.722 207.363 237.763 207.292 237.799C207.215 237.833 207.175 237.851 207.175 237.851Z" fill="black"/>
<path d="M239.914 242.802C239.914 242.802 239.81 242.671 239.582 242.477C239.464 242.384 239.328 242.26 239.152 242.145C238.978 242.026 238.771 241.902 238.543 241.775C238.31 241.65 238.05 241.529 237.766 241.415C237.479 241.305 237.177 241.188 236.849 241.108C236.527 241.008 236.183 240.942 235.833 240.879C235.482 240.813 235.118 240.796 234.757 240.758C234.394 240.747 234.032 240.74 233.675 240.751C233.319 240.774 232.97 240.806 232.634 240.846C232.302 240.902 231.984 240.966 231.682 241.027C231.385 241.095 231.111 241.192 230.858 241.27C230.605 241.353 230.374 241.427 230.182 241.52C229.985 241.608 229.818 241.691 229.683 241.759C229.406 241.893 229.259 241.981 229.259 241.981C229.259 241.981 229.444 241.985 229.752 241.969C229.904 241.961 230.091 241.952 230.303 241.934C230.51 241.911 230.747 241.908 231.006 241.896C231.261 241.887 231.533 241.856 231.827 241.85C232.116 241.845 232.418 241.838 232.728 241.822C233.042 241.825 233.364 241.83 233.69 241.822C234.014 241.833 234.34 241.848 234.671 241.86C234.834 241.873 234.998 241.885 235.161 241.897C235.323 241.91 235.486 241.915 235.647 241.94C235.806 241.962 235.966 241.976 236.124 241.992C236.283 242.005 236.436 242.039 236.587 242.058C236.896 242.095 237.187 242.153 237.471 242.201C237.613 242.22 237.744 242.259 237.876 242.282C238.009 242.309 238.141 242.331 238.26 242.362C238.504 242.42 238.733 242.471 238.932 242.523C239.136 242.573 239.308 242.626 239.454 242.664C239.596 242.71 239.717 242.736 239.794 242.764C239.872 242.788 239.914 242.802 239.914 242.802Z" fill="black"/>
<path d="M248.816 251.956C248.816 251.956 249.42 250.947 250.57 249.022C254.872 241.815 256.688 233.357 254.367 225.439C253.119 221.181 250.549 219.11 248.456 218.106C246.312 217.079 236.56 211.501 230.708 209.891C220.142 206.984 208.891 210.01 200.985 214.982C193.08 219.954 182.767 236.243 191.318 236.41C199.868 236.578 212.866 225.682 209.004 228.49C203.475 232.512 208.887 232.938 221.26 233.321C233.633 233.704 240.969 229.805 240.969 229.805C240.969 229.805 240.503 233.235 242.326 238.316C244.147 243.399 249.204 249.187 249.204 249.187" fill="#361710"/>
<path d="M210.078 275.596L213.087 344.86C213.087 344.86 212.998 357.438 202.478 360.452C191.958 363.466 187.118 362.562 187.118 362.562C187.118 362.562 198.553 317.916 196.26 307.918C193.967 297.92 190.454 281.946 190.454 281.946L210.078 275.596Z" fill="#122738"/>
<path d="M236.416 275.411L231.984 344.86C231.984 344.86 232.073 357.438 242.593 360.452C253.113 363.466 257.953 362.562 257.953 362.562C257.953 362.562 246.517 317.916 248.81 307.918C251.104 297.92 254.617 281.947 254.617 281.947L236.416 275.411Z" fill="#122738"/>
<path d="M266.427 295.244C266.427 295.244 287.653 318.008 287.691 325.17C287.729 332.333 276.594 330.072 276.594 330.072L256.477 304.063L266.427 295.244Z" fill="#EDAC7C"/>
<path d="M266.427 295.244L256.477 304.063L264.474 314.402C264.474 314.402 269.217 307.996 277.81 308.478C272.256 301.496 266.427 295.244 266.427 295.244Z" fill="#CF9166"/>
<path d="M189.231 297.407C189.231 297.407 160.874 312.51 153.075 311.333C145.274 310.157 149.616 300.598 149.616 300.598L181.318 287.034L189.231 297.407Z" fill="#EDAC7C"/>
<path d="M165.731 308.314C176.485 304.193 189.231 297.408 189.231 297.408L181.318 287.035L165.723 293.706C165.723 293.706 171.505 305.095 165.731 308.314" fill="#CF9166"/>
<path d="M282.895 330.207C282.952 330.178 283.01 330.147 283.067 330.116C285.299 328.892 286.942 326.916 288.066 324.781C290.457 320.237 291.721 314.973 293.54 310.205C294.956 306.491 296.241 302.486 297.975 298.75C297.709 298.64 297.46 298.5 297.238 298.311C295.033 296.441 293.948 295.172 291.409 293.685C290.682 299.423 281.791 310.689 278.08 319.641C277.347 321.411 276.708 323.242 276.636 325.131C276.503 328.682 278.635 332.439 282.895 330.207Z" fill="#EEC9B1"/>
<path d="M278.182 331.684C279.288 332.285 281.129 332.726 283.659 331.405L283.856 331.299C286.128 330.054 288.058 328.005 289.443 325.376C291.062 322.3 292.175 318.923 293.251 315.657C293.798 313.992 294.365 312.271 294.981 310.657C295.414 309.524 295.834 308.364 296.257 307.193C297.212 304.56 298.197 301.838 299.382 299.285L299.957 298.043L298.602 297.489C298.471 297.435 298.366 297.375 298.281 297.303C297.697 296.807 297.192 296.354 296.718 295.929C295.378 294.726 294.223 293.687 292.237 292.524L290.174 291.316L289.892 293.527C289.519 296.48 286.591 301.356 283.492 306.519C280.947 310.756 278.318 315.136 276.651 319.157C275.934 320.884 275.191 322.939 275.111 325.083C275.001 328.019 276.207 330.608 278.182 331.684Z" fill="#EDAC7C"/>
<path d="M296.415 294.921C296.418 294.913 298.103 290.304 298.752 290.125C299.404 289.946 300.559 290.364 300.559 290.364L298.61 296.973C298.61 296.973 301.327 291.441 302.388 290.966C303.446 290.489 304.63 290.992 304.63 290.992L301.391 298.601C301.391 298.601 303.307 293.105 304.439 292.24C305.573 291.378 306.915 291.745 306.915 291.745L304.18 299.951L303.935 298.913C303.935 298.913 305.804 296.006 306.949 295.785C308.092 295.561 309.193 295.811 309.193 295.811C309.193 295.811 307.136 298.769 306.249 300.669C305.362 302.569 303.753 302.92 303.753 302.92C300.145 301.92 297.069 299.479 294.102 297.394C291.809 295.78 290.173 291.314 290.173 291.314C290.173 291.314 293.284 288.707 296.415 294.921" fill="#EDAC7C"/>
<path d="M150.386 308.477C150.343 308.431 150.301 308.386 150.259 308.339C148.622 306.499 147.822 304.134 147.569 301.778C147.034 296.769 147.828 291.429 147.915 286.385C147.982 282.457 148.284 278.295 148.062 274.246C148.351 274.226 148.641 274.171 148.92 274.062C151.697 272.985 153.195 272.128 156.141 271.516C154.664 277.134 158.776 290.471 158.893 300.033C158.915 301.924 158.825 303.842 158.181 305.64C156.969 309.02 153.55 311.894 150.386 308.477Z" fill="#EEC9B1"/>
<path d="M154.259 311.322C152.993 311.546 151.098 311.393 149.216 309.367L149.07 309.205C147.404 307.334 146.36 304.812 146.05 301.911C145.687 298.521 145.914 295.003 146.133 291.601C146.245 289.866 146.36 288.073 146.39 286.364C146.41 285.166 146.452 283.945 146.495 282.715C146.59 279.944 146.688 277.081 146.538 274.314L146.464 272.97L147.946 272.868C148.091 272.859 148.211 272.834 148.319 272.792C149.056 272.508 149.698 272.237 150.305 271.984C152.017 271.267 153.495 270.649 155.8 270.169L158.195 269.67L157.627 271.837C156.865 274.727 157.781 280.216 158.749 286.026C159.544 290.795 160.366 295.726 160.419 300.02C160.442 301.865 160.366 304.025 159.633 306.066C158.63 308.86 156.522 310.923 154.259 311.322Z" fill="#EDAC7C"/>
<path d="M150.969 271.131C150.969 271.122 151.123 266.269 150.58 265.9C150.034 265.531 148.79 265.565 148.79 265.565L148.133 272.381C148.133 272.381 147.664 266.341 146.846 265.567C146.03 264.792 144.727 264.898 144.727 264.898L144.906 273.052C144.906 273.052 145.176 267.294 144.436 266.132C143.697 264.97 142.297 264.899 142.297 264.899L141.777 273.459L142.398 272.559C142.398 272.559 141.736 269.25 140.744 268.686C139.752 268.124 138.625 268.018 138.625 268.018C138.625 268.018 139.443 271.435 139.561 273.495C139.679 275.555 141.059 276.381 141.059 276.381C144.828 276.557 148.639 275.213 152.213 274.168C154.976 273.361 158.195 269.669 158.195 269.669C158.195 269.669 156.254 266.257 150.969 271.131Z" fill="#EDAC7C"/>
<path d="M254.617 281.945C254.617 281.945 271.901 294.459 276.022 301.785L257.853 313.665L244.101 295.245L254.617 281.945Z" fill="#122738"/>
<path d="M190.456 281.945C190.456 281.945 175.591 288.543 166.711 292.813L174.72 310.57L200.102 302.094L190.456 281.945Z" fill="#122738"/>
<path d="M225.098 526.381C222.639 526.846 218.847 525.546 216 529.537C213.257 533.383 206.808 533.323 206.343 533.315C210.652 533.815 215.745 533.569 217.037 531.868C219.002 529.28 223.74 528.759 223.74 528.759C226.479 528.759 228.674 526.711 228.59 524.232C228.585 524.088 228.581 523.93 228.577 523.781C227.691 524.88 226.426 526.131 225.098 526.381Z" fill="#1C0906"/>
<path d="M485.354 217.54L487.399 218.196C489.571 218.893 490.708 221.053 489.939 223.02L489.195 224.921C488.426 226.887 486.042 227.918 483.869 227.22L481.825 226.565C479.654 225.867 478.516 223.707 479.286 221.74L480.028 219.841C480.797 217.873 483.182 216.843 485.354 217.54ZM508.97 166.96C514.284 168.664 517.628 171.68 519.005 176.006C520.107 179.426 519.941 182.971 518.505 186.644C516.103 192.786 510.746 197.643 502.437 201.212C499.54 202.457 497.52 204.338 496.377 206.859C495.973 207.691 495.566 208.629 495.157 209.674C494.388 211.642 492.003 212.671 489.832 211.975L487.788 211.318C485.615 210.622 484.478 208.462 485.248 206.494C487.439 200.89 490.588 197.216 494.695 195.467C499.131 193.576 502.567 191.277 505.005 188.566C506.41 186.986 507.504 185.197 508.283 183.203C509.088 181.145 509.213 179.368 508.658 177.872C508.07 176.151 506.662 175.074 504.431 174.644C502.352 174.226 500.43 175.018 498.664 177.017C498.576 177.113 498.488 177.211 498.402 177.314C497.139 178.797 494.859 179.209 493.059 178.287L491.294 177.383C489.109 176.265 488.495 173.659 489.994 171.835C491.483 170.024 493.278 168.567 495.377 167.462C497.653 166.268 500.374 165.751 503.538 165.911C505.202 165.983 507.013 166.332 508.97 166.96Z" fill="#FCC822"/>
<path d="M342.523 223.129L345.512 223.658C348.688 224.221 350.758 227.01 350.136 229.884L349.536 232.662C348.915 235.538 345.837 237.413 342.662 236.85L339.672 236.321C336.497 235.758 334.427 232.97 335.049 230.095L335.649 227.316C336.27 224.441 339.347 222.565 342.523 223.129ZM363.827 148.467C371.595 149.845 376.927 153.409 379.823 159.16C382.131 163.704 382.706 168.66 381.545 174.029C379.605 183.011 373.269 190.754 362.541 197.263C358.799 199.532 356.421 202.522 355.406 206.235C355.033 207.467 354.681 208.847 354.352 210.374C353.731 213.25 350.653 215.126 347.477 214.562L344.488 214.033C341.312 213.47 339.242 210.682 339.863 207.807C341.635 199.613 345.172 193.92 350.479 190.727C356.211 187.274 360.463 183.438 363.232 179.218C364.824 176.761 365.936 174.074 366.565 171.157C367.216 168.149 366.985 165.657 365.872 163.681C364.666 161.402 362.466 160.17 359.269 159.988C356.285 159.795 353.794 161.252 351.797 164.358C351.698 164.509 351.598 164.663 351.501 164.82C350.085 167.116 347.011 168.113 344.301 167.169L341.644 166.243C338.355 165.097 336.909 161.591 338.578 158.779C340.234 155.985 342.395 153.626 345.062 151.701C347.951 149.618 351.612 148.393 356.044 148.025C358.37 147.813 360.964 147.96 363.827 148.467" fill="#FCC822"/>
<path d="M294.319 271.216L296.421 270.727C298.651 270.208 300.926 271.426 301.498 273.447L302.052 275.4C302.625 277.42 301.28 279.481 299.048 279.999L296.946 280.488C294.716 281.007 292.441 279.79 291.869 277.767L291.315 275.815C290.742 273.794 292.087 271.735 294.319 271.216ZM282.768 217.303C288.228 216.033 292.861 216.846 296.669 219.74C299.688 222.021 301.733 225.047 302.803 228.822C304.593 235.134 303.139 241.872 298.442 249.032C296.803 251.529 296.285 254.111 296.889 256.78C297.066 257.675 297.306 258.66 297.61 259.734C298.184 261.755 296.839 263.814 294.607 264.333L292.506 264.822C290.274 265.341 288.001 264.124 287.428 262.102C285.796 256.343 286.145 251.701 288.477 248.177C290.995 244.366 292.431 240.721 292.784 237.239C292.976 235.217 292.783 233.181 292.202 231.132C291.602 229.017 290.612 227.479 289.228 226.517C287.681 225.386 285.85 225.205 283.732 225.974C281.75 226.679 280.641 228.306 280.408 230.857C280.394 230.982 280.382 231.108 280.373 231.236C280.239 233.106 278.6 234.6 276.538 234.744L274.518 234.886C272.015 235.061 269.901 233.209 270.022 230.938C270.142 228.683 270.733 226.566 271.797 224.589C272.951 222.448 274.889 220.644 277.614 219.178C279.039 218.396 280.755 217.771 282.768 217.303" fill="#FCC822"/>
<path d="M616.051 271.473L618.153 270.984C620.384 270.465 622.659 271.683 623.231 273.704L623.784 275.657C624.358 277.678 623.013 279.737 620.782 280.257L618.679 280.745C616.448 281.265 614.174 280.046 613.602 278.025L613.048 276.073C612.474 274.052 613.819 271.992 616.051 271.473ZM604.501 217.561C609.961 216.291 614.594 217.104 618.402 219.998C621.421 222.279 623.466 225.305 624.536 229.079C626.326 235.392 624.872 242.13 620.174 249.29C618.536 251.787 618.018 254.368 618.622 257.038C618.799 257.933 619.039 258.918 619.343 259.991C619.917 262.012 618.572 264.072 616.341 264.591L614.239 265.08C612.007 265.599 609.734 264.382 609.16 262.36C607.528 256.601 607.878 251.959 610.209 248.434C612.728 244.624 614.163 240.979 614.517 237.496C614.709 235.474 614.515 233.439 613.935 231.39C613.335 229.274 612.344 227.737 610.961 226.775C609.414 225.644 607.583 225.463 605.466 226.232C603.484 226.936 602.374 228.563 602.14 231.115C602.127 231.239 602.115 231.366 602.107 231.494C601.972 233.363 600.333 234.858 598.271 235.002L596.25 235.144C593.749 235.319 591.634 233.465 591.754 231.196C591.875 228.94 592.466 226.823 593.53 224.846C594.683 222.705 596.622 220.902 599.347 219.436C600.771 218.654 602.49 218.029 604.501 217.561" fill="#FCC822"/>
<path d="M378.075 342.9L386.931 309.021L370.825 308.47L362.363 339.744C361.766 341.951 361.905 344.269 362.761 346.404L378.154 384.771L396.589 383.159L378.075 342.9Z" fill="#A7A6BB"/>
<path d="M370.792 338.377C372.434 335.386 374.029 332.713 375.575 330.356C377.714 326.898 380.418 323.964 383.662 321.53L386.933 309.021L370.825 308.47L362.363 339.745C361.946 341.287 361.91 342.879 362.205 344.429C365.802 343.717 369.025 341.597 370.792 338.377Z" fill="#727293"/>
<path d="M393.768 454.667L393.376 456.314L391.317 464.967L382.203 503.267L381.21 507.429L380.988 508.367L379.154 526.557L376.995 527.149C371.514 528.657 365.915 528.331 361.029 526.515C359.028 525.772 356.988 523.962 355.566 522.524C353.956 520.894 352.653 519.023 351.644 517.037C348.745 511.328 348.075 504.825 347.924 498.617C347.872 496.518 347.885 494.419 347.885 492.319V471.739V453.745V447.207C349.559 447.207 351.438 447.017 352.782 446.934C353.991 446.863 356.165 446.496 357.411 446.496C362.294 444.978 367.33 445.393 372.044 444.874C374.283 444.627 376.45 444.509 378.489 444.433C381.332 444.33 383.93 444.484 386.148 444.982C390.799 446.031 393.768 448.797 393.768 454.667Z" fill="#1C1B2D"/>
<path d="M430.331 511.771L381.842 525.821L379.155 526.558L376.996 527.149C371.514 528.657 365.915 528.332 361.029 526.516C359.756 525.868 358.553 525.111 357.439 524.263C357.431 524.259 357.427 524.251 357.419 524.244C353.662 521.104 351.036 516.859 350.132 512.074L378.192 504.367L382.202 503.268L423.89 492.531L430.331 511.771Z" fill="#1C1B2D"/>
<path d="M456.011 514.94C455.387 512.49 454.299 509.457 454.057 508.499C453.132 504.827 451.761 501.242 450.597 497.629C450.171 496.306 449.65 495.392 449.471 495.104C449.381 494.97 449.394 494.978 449.471 495.104C449.601 495.296 449.941 495.771 450.606 496.596C449.388 495.088 448.411 493.668 447.605 491.956C446.697 490.025 445.999 488.091 445.474 486.165L415.497 494.274L422.284 514.865L436.348 511.061C437.217 510.826 438.13 511.273 438.389 512.058L439.836 516.451C440.285 517.812 440.932 519.067 441.711 520.227C442.527 519.969 443.359 519.754 444.21 519.588C447.927 518.863 451.47 517.671 455.028 516.518C455.33 515.981 455.654 515.453 456.011 514.94Z" fill="#361710"/>
<path d="M428.387 497.449C431.021 496.735 433.795 498.093 434.582 500.479C435.368 502.865 433.871 505.378 431.236 506.091C428.602 506.803 425.828 505.446 425.041 503.06C424.255 500.674 425.752 498.162 428.387 497.449Z" fill="white"/>
<path d="M439.966 516.811C442.94 525.125 452.711 529.81 462.005 527.296C462.872 527.061 463.366 526.234 463.107 525.449L458.598 511.772L439.966 516.811Z" fill="white"/>
<path d="M455.933 527.949C457.929 528.047 459.979 527.844 462.005 527.296C462.872 527.061 463.366 526.234 463.107 525.448L450.241 486.427C449.983 485.641 449.07 485.193 448.202 485.429L442.43 486.989L455.933 527.949Z" fill="white"/>
<path d="M429.833 388.678L427.22 393.526L413.526 418.93L390.988 460.745L348.478 445.151L361.494 418.343L370.83 399.126L385.125 369.685L429.833 388.678Z" fill="#A7A6BB"/>
<path d="M422.203 397.006C421.727 397.006 420.83 396.417 419.755 395.593C417.417 406.73 405.378 415.457 392.877 415.457C382.235 415.457 373.527 409.964 368.989 402.115L359.603 422.241L369.547 435.955C371.654 438.788 375.779 439.738 379.128 438.159L411.633 422.829L425.327 397.426C424.322 397.149 423.266 397.006 422.203 397.006Z" fill="#727293"/>
<path d="M408.302 403.12C405.84 403.12 403.497 402.797 401.269 402.249L373.985 452.866L349.156 443.757L348.479 445.151L390.988 460.746L424.907 397.817C420.15 401.118 414.281 403.12 408.302 403.12Z" fill="#727293"/>
<path d="M438.056 354.854C438.056 354.854 444.654 351.373 447.186 356.158C449.72 360.942 439.448 369.113 432.842 363.911L438.056 354.854Z" fill="#EDAC7C"/>
<path d="M436.08 358.287L433.394 362.95C439.554 366.442 447.053 359.448 444.513 357.177C442.46 355.34 438.095 357.164 436.08 358.287Z" fill="#F7A588"/>
<path d="M444.814 359.299C444.814 359.299 444.818 359.257 444.829 359.179C444.84 359.102 444.846 358.99 444.858 358.852C444.866 358.575 444.849 358.165 444.634 357.797C444.581 357.705 444.509 357.621 444.431 357.542C444.388 357.504 444.348 357.465 444.299 357.427L444.266 357.402L444.265 357.399C444.289 357.421 444.27 357.405 444.274 357.409L444.27 357.405L444.255 357.397L444.234 357.381L444.14 357.319C444.074 357.271 444.019 357.242 443.967 357.214C443.916 357.184 443.857 357.155 443.789 357.126C443.728 357.099 443.663 357.07 443.597 357.049C443.529 357.023 443.464 356.996 443.391 356.98C442.832 356.817 442.17 356.8 441.502 356.868C441.164 356.895 440.83 356.955 440.497 357.018C440.166 357.084 439.837 357.158 439.522 357.237C438.889 357.399 438.299 357.58 437.789 357.735C436.764 358.067 436.08 358.287 436.08 358.287C436.08 358.287 436.209 358.169 436.456 357.981C436.706 357.797 437.07 357.544 437.537 357.279C437.772 357.149 438.03 357.007 438.312 356.877C438.595 356.746 438.902 356.618 439.227 356.5C439.879 356.268 440.609 356.068 441.382 355.992C441.77 355.957 442.164 355.946 442.559 355.986C442.952 356.025 443.345 356.114 443.702 356.257C443.792 356.29 443.877 356.33 443.963 356.373C444.05 356.412 444.128 356.461 444.206 356.509C444.285 356.555 444.36 356.608 444.436 356.667C444.513 356.725 444.586 356.78 444.631 356.829L444.714 356.91L444.764 356.958L444.809 357.007C444.869 357.07 444.918 357.136 444.965 357.204C445.052 357.343 445.119 357.483 445.16 357.622C445.25 357.898 445.241 358.156 445.206 358.369C445.176 358.58 445.107 358.755 445.048 358.891C444.988 359.026 444.923 359.129 444.882 359.197C444.838 359.265 444.814 359.299 444.814 359.299Z" fill="#CF9166"/>
<path d="M397.87 339.788C397.87 339.788 395.918 333.104 390.395 334.867C384.868 336.629 385.759 348.986 394.493 349.536L397.87 339.788Z" fill="#EDAC7C"/>
<path d="M396.59 343.483L394.85 348.499C387.769 347.029 387.922 337.281 391.491 337.3C394.373 337.314 396.041 341.399 396.59 343.483Z" fill="#F7A588"/>
<path d="M389.621 338.607C389.621 338.607 389.649 338.576 389.704 338.515C389.757 338.452 389.836 338.369 389.94 338.264C390.147 338.061 390.479 337.781 390.921 337.66C391.029 337.629 391.144 337.615 391.265 337.61C391.323 337.611 391.383 337.607 391.442 337.614L391.489 337.617H391.492C391.456 337.616 391.485 337.616 391.479 337.616L391.484 337.617L391.5 337.619L391.528 337.622L391.645 337.638C391.727 337.645 391.79 337.662 391.848 337.675C391.909 337.685 391.973 337.703 392.042 337.727C392.108 337.745 392.173 337.768 392.238 337.794C392.305 337.819 392.371 337.844 392.436 337.878C392.959 338.119 393.443 338.533 393.864 339.008C394.077 339.243 394.27 339.5 394.457 339.758C394.639 340.017 394.814 340.279 394.975 340.538C395.295 341.058 395.572 341.562 395.813 341.998C396.279 342.89 396.589 343.483 396.589 343.483C396.589 343.483 396.591 343.315 396.562 343.026C396.532 342.738 396.471 342.322 396.345 341.836C396.281 341.593 396.208 341.329 396.109 341.056C396.011 340.782 395.898 340.494 395.758 340.202C395.479 339.622 395.118 339.015 394.631 338.464C394.387 338.192 394.111 337.931 393.801 337.708C393.493 337.483 393.148 337.294 392.783 337.168C392.692 337.132 392.599 337.107 392.507 337.083C392.415 337.055 392.323 337.037 392.226 337.023C392.139 337.005 392.043 336.994 391.942 336.987C391.843 336.979 391.748 336.973 391.675 336.979L391.559 336.98L391.484 336.982L391.415 336.988C391.323 336.994 391.233 337.011 391.147 337.029C390.98 337.073 390.823 337.129 390.684 337.199C390.406 337.338 390.212 337.527 390.071 337.697C389.925 337.868 389.84 338.034 389.775 338.169C389.71 338.305 389.677 338.418 389.653 338.493C389.632 338.568 389.621 338.607 389.621 338.607Z" fill="#CF9166"/>
<path d="M415.609 364.776L404.73 360.695C404.73 360.695 397.26 375.97 397.22 375.955C397.22 375.955 396.612 379.332 401.408 381.209C406.205 383.087 408.864 380.319 408.864 380.319C408.862 380.219 415.609 364.776 415.609 364.776Z" fill="#EDAC7C"/>
<path d="M412.112 372.976L400.497 369.321C400.497 369.321 397.904 374.698 397.863 374.683C397.863 374.683 397.415 377.381 402.21 379.261C407.007 381.137 409.509 378.814 409.509 378.814C409.507 378.714 412.112 372.976 412.112 372.976Z" fill="#CF9166"/>
<path d="M414.312 367.613L403.433 363.532C403.433 363.532 402.395 365.451 401.503 367.082C401.372 367.317 404.303 368.918 404.62 369.093C407.109 370.475 409.873 371.147 412.737 371.523C413.435 369.774 414.312 367.613 414.312 367.613Z" fill="#CF9166"/>
<path d="M442.802 339.396C433.256 339.396 425.259 334.982 420.437 328.409H394.141C393.657 329.843 393.216 331.404 392.832 333.134C389.941 346.175 393.715 363.143 408.234 368.586C422.755 374.03 439.801 365.135 445.415 352.849C447.462 348.368 447.786 343.615 446.687 339.117C445.403 339.298 444.104 339.396 442.802 339.396Z" fill="#3E150D"/>
<path d="M442.757 351.499C445.624 344.554 445.327 336.87 439.073 331.414C435.893 328.638 431.887 326.715 427.796 325.251C423.754 323.805 419.371 322.437 414.995 322.34C407.155 322.167 406.689 325.705 403.145 331.699C402.796 332.286 396.89 333.582 396.586 334.187C395.887 335.578 395.132 336.922 394.543 338.359C393.219 341.591 392.32 344.992 392.085 348.444C391.8 352.63 392.566 356.902 394.806 360.651C396.078 362.783 397.792 364.691 399.789 366.316C403.09 368.997 406.582 370.783 410.929 371.623C413.875 372.194 416.916 372.385 419.893 372.03C424.832 371.444 429.298 369.33 432.872 366.289C435.877 363.73 438.259 360.611 440.123 357.302C441.144 355.489 442.054 353.6 442.707 351.654C442.724 351.601 442.737 351.549 442.757 351.499Z" fill="#EDAC7C"/>
<path d="M423.346 349.935C422.374 351.848 423.159 354.055 425.1 354.862C427.043 355.671 429.405 354.772 430.38 352.859C431.353 350.944 430.567 348.74 428.626 347.931C426.683 347.123 424.32 348.02 423.346 349.935Z" fill="#CF9166"/>
<path d="M423.645 348.554C422.67 350.468 423.456 352.673 425.397 353.483C427.341 354.291 429.703 353.393 430.677 351.479C431.651 349.567 430.866 347.359 428.924 346.55C426.981 345.745 424.617 346.641 423.645 348.554Z" fill="black"/>
<path d="M425.328 348.118C424.975 348.811 425.323 349.636 426.101 349.958C426.881 350.283 427.797 349.986 428.15 349.291C428.502 348.598 428.155 347.774 427.377 347.45C426.599 347.126 425.682 347.424 425.328 348.118Z" fill="white"/>
<path d="M401.448 342.604C400.474 344.518 401.259 346.724 403.202 347.531C405.144 348.339 407.508 347.44 408.479 345.529C409.453 343.615 408.668 341.408 406.727 340.6C404.786 339.794 402.421 340.689 401.448 342.604Z" fill="#CF9166"/>
<path d="M401.86 341.792C400.885 343.707 401.672 345.912 403.614 346.721C405.556 347.529 407.918 346.632 408.892 344.717C409.866 342.805 409.08 340.597 407.139 339.79C405.198 338.983 402.832 339.88 401.86 341.792Z" fill="black"/>
<path d="M403.543 341.358C403.191 342.05 403.535 342.875 404.316 343.198C405.094 343.524 406.012 343.225 406.366 342.531C406.716 341.837 406.372 341.013 405.592 340.688C404.813 340.366 403.896 340.664 403.543 341.358Z" fill="white"/>
<path d="M415.314 343.084C415.314 343.084 414.043 350.585 411.717 349.908C407.208 348.602 405.839 357.567 413.318 355.094C416.142 354.162 417.588 343.429 417.588 343.429L415.314 343.084Z" fill="#F48470"/>
<path d="M400.861 338.562C400.861 338.562 401.002 338.456 401.283 338.316C401.425 338.249 401.6 338.16 401.808 338.089C402.013 338.007 402.251 337.934 402.519 337.863C402.785 337.792 403.078 337.732 403.39 337.684C403.705 337.641 404.041 337.596 404.39 337.59C404.737 337.567 405.096 337.583 405.464 337.603C405.833 337.619 406.2 337.687 406.57 337.732C406.931 337.807 407.297 337.885 407.647 337.977C407.992 338.083 408.331 338.196 408.651 338.313C408.967 338.446 409.266 338.585 409.546 338.717C409.827 338.853 410.07 339.014 410.3 339.149C410.524 339.291 410.734 339.417 410.9 339.558C411.069 339.689 411.212 339.811 411.33 339.909C411.563 340.105 411.686 340.23 411.686 340.23C411.686 340.23 411.502 340.189 411.2 340.1C411.049 340.057 410.866 340.005 410.661 339.939C410.463 339.868 410.227 339.809 409.973 339.737C409.721 339.669 409.461 339.573 409.173 339.501C408.885 339.429 408.587 339.35 408.282 339.262C407.97 339.19 407.651 339.122 407.328 339.038C407.003 338.976 406.674 338.911 406.342 338.847C406.175 338.822 406.009 338.796 405.844 338.771C405.677 338.746 405.515 338.712 405.349 338.699C405.184 338.683 405.021 338.662 404.86 338.64C404.698 338.616 404.54 338.615 404.379 338.597C404.063 338.563 403.757 338.552 403.462 338.534C403.315 338.521 403.174 338.528 403.036 338.521C402.895 338.517 402.761 338.509 402.631 338.512C402.372 338.51 402.13 338.509 401.919 338.515C401.701 338.516 401.515 338.528 401.356 338.532C401.205 338.544 401.076 338.543 400.994 338.553C400.906 338.559 400.861 338.562 400.861 338.562Z" fill="black"/>
<path d="M434.421 344.698C434.421 344.698 434.34 344.549 434.148 344.315C434.047 344.203 433.931 344.056 433.777 343.912C433.624 343.763 433.439 343.605 433.231 343.439C433.023 343.277 432.783 343.113 432.517 342.952C432.247 342.796 431.965 342.63 431.65 342.495C431.343 342.343 431.007 342.222 430.665 342.104C430.324 341.979 429.958 341.906 429.601 341.808C429.236 341.74 428.871 341.675 428.507 341.629C428.143 341.595 427.782 341.572 427.437 341.559C427.09 341.564 426.756 341.576 426.438 341.593C426.124 341.612 425.829 341.666 425.557 341.705C425.286 341.749 425.039 341.788 424.825 341.851C424.61 341.909 424.424 341.967 424.274 342.013C423.969 342.105 423.801 342.17 423.801 342.17C423.801 342.17 423.987 342.204 424.302 342.235C424.46 342.253 424.65 342.274 424.866 342.289C425.081 342.299 425.322 342.333 425.586 342.363C425.846 342.395 426.128 342.406 426.424 342.447C426.719 342.488 427.024 342.529 427.343 342.562C427.659 342.614 427.984 342.672 428.315 342.715C428.64 342.778 428.968 342.844 429.3 342.91C429.463 342.948 429.625 342.987 429.788 343.025C429.949 343.065 430.114 343.094 430.272 343.146C430.428 343.192 430.586 343.235 430.743 343.273C430.902 343.313 431.05 343.37 431.2 343.415C431.504 343.502 431.788 343.606 432.066 343.701C432.205 343.742 432.33 343.802 432.46 343.848C432.59 343.895 432.718 343.939 432.833 343.99C433.068 344.085 433.29 344.173 433.481 344.259C433.678 344.341 433.842 344.422 433.982 344.484C434.117 344.553 434.234 344.601 434.306 344.639C434.381 344.677 434.421 344.698 434.421 344.698Z" fill="black"/>
<path d="M443.049 351.864C443.049 351.864 444.633 349.36 446.171 345.925C444.554 349.399 443.049 351.864 443.049 351.864Z" fill="#CF9166"/>
<path d="M445.169 327.31C443.606 327.451 441.981 327.418 440.418 327.448C436.665 327.523 432.91 327.423 429.157 327.485C426.923 327.523 424.694 327.612 422.467 327.769C422.278 327.782 417.11 328.261 417.27 328.201C413.42 328.677 409.584 329.285 405.747 329.817C404.26 330.024 402.798 330.137 401.352 330.197C405.694 331.03 411.318 330.788 415.24 330.442C415.029 330.501 414.842 330.546 414.614 330.617C410.561 331.864 413.91 335.949 421.02 338.694C430.86 342.494 439.778 340.988 439.778 340.988C439.778 340.988 438.187 343.603 437.842 348.209C437.607 351.362 438.469 355.223 439.034 357.346C439.297 358.322 439.495 358.932 439.495 358.932L438.2 361.039C438.2 361.039 441.062 356.659 446.164 350.958C456.797 339.079 455.678 332.186 453.625 328.834C450.743 328.698 447.879 328.205 445.169 327.31Z" fill="#361710"/>
<path d="M444.477 342.422C444.477 342.422 423.319 343.249 388 330.527C371.1 324.44 398.746 324.007 398.746 324.007L431.448 323.329L444.477 342.422Z" fill="#2D2C44"/>
<path d="M448.8 348.01C448.8 348.01 447.562 345.646 444.478 342.423C440.928 338.712 434.935 333.859 425.578 330.165C408.103 323.267 398.745 324.009 398.745 324.009C398.745 324.009 400.168 314.712 413.696 310.085C418.951 308.287 424.364 307.805 429.539 308.569C438.224 309.85 446.241 314.632 451.735 322.579C460.459 335.197 448.8 348.01 448.8 348.01Z" fill="#2D2C44"/>
<path d="M444.477 342.423C440.93 338.71 434.935 333.859 425.579 330.165C408.103 323.266 398.746 324.008 398.746 324.008C398.746 324.008 400.168 314.712 413.695 310.084C418.951 308.286 424.366 307.805 429.54 308.569C434.015 310.328 438.248 313.069 441.963 316.778C451.909 326.712 446.121 339.355 444.477 342.423Z" fill="#A7A6BB"/>
<path d="M441.382 355.992C441.382 355.992 426.888 361.167 420.957 365.122C419.398 366.162 418.563 369.686 413.475 369.686C407.173 369.686 408.165 366.961 404.036 364.378C401.725 362.933 396.825 361.468 395.436 359.653C392.379 355.665 392.402 342.838 392.402 342.838C392.402 342.838 388.201 352.785 391.401 362.223C392.776 366.279 394.522 376.825 410.067 377.346C424.769 377.838 427.062 373.739 429.93 371.062C432.798 368.387 441.382 355.992 441.382 355.992Z" fill="#361710"/>
<path d="M341.768 346.89L347.622 349.528C353.84 352.328 356.373 359.165 353.282 364.797L350.296 370.235C347.204 375.868 339.656 378.164 333.438 375.362L327.584 372.724C321.366 369.924 318.833 363.088 321.924 357.456L324.91 352.017C328.003 346.385 335.55 344.09 341.768 346.89Z" fill="#FCC822"/>
<path d="M356.171 381.939L354.138 377.888C353.631 376.53 353.444 375.093 353.585 373.666L354.489 364.552C354.608 363.363 354.201 362.177 353.356 361.259L345.253 352.44C344.736 351.877 343.76 351.946 343.345 352.574C343.099 352.948 343.127 353.418 343.419 353.764L347.176 358.225L343.693 355.719C343.018 355.234 342.016 355.49 341.722 356.224C341.547 356.66 341.682 357.151 342.064 357.461L347.502 361.909L342.368 358.889C341.66 358.471 340.707 358.761 340.418 359.481C340.202 360.021 340.444 360.623 340.992 360.914L345.708 363.404L340.68 361.882C340.073 361.699 339.415 361.987 339.197 362.532C338.996 363.032 339.233 363.59 339.751 363.84L342.644 365.237C344.564 366.166 345.599 368.116 345.197 370.053L344.256 374.602C343.723 377.18 344.296 379.846 345.857 382.055L348.408 385.663L356.171 381.939Z" fill="#EDAC7C"/>
<path d="M419.849 388.86L385.062 405.732C382.754 406.853 379.882 406.175 378.467 404.18L358.131 375.785L342.994 383.255L372.285 426.646C374.395 429.48 378.518 430.429 381.865 428.851L429.944 406.177C434.707 403.931 436.927 398.858 435.158 394.266C432.97 388.589 425.702 386.022 419.849 388.86Z" fill="#A7A6BB"/>
<path d="M399.316 445.019C399.316 462.183 383.955 476.102 364.998 476.102L331.816 473.419L308.112 471.5V466.49C308.112 454.63 318.725 445.019 331.816 445.019H399.316Z" fill="#2D2C44"/>
<path d="M331.135 445.02V528.423L310.339 524.527L307.687 466.491C307.687 454.631 317.735 445.02 331.135 445.02Z" fill="#2D2C44"/>
<path d="M295.62 513.459C285.974 513.661 278.222 520.802 278.222 529.587C278.222 530.408 278.957 531.073 279.862 531.073H295.62V513.459Z" fill="white"/>
<path d="M308.261 498.67V511.966C308.261 512.785 307.527 513.45 306.623 513.45H296.038C295.493 513.45 294.956 513.473 294.423 513.516V526.458H331.986V498.67H308.261Z" fill="#361710"/>
<path d="M324.94 508.951C324.94 511.44 322.711 513.46 319.962 513.46C317.213 513.46 314.983 511.44 314.983 508.951C314.983 506.46 317.213 504.441 319.962 504.441C322.711 504.441 324.94 506.46 324.94 508.951Z" fill="white"/>
<path d="M279.269 524.13C278.594 525.834 278.222 527.671 278.222 529.587C278.222 530.407 278.956 531.071 279.862 531.071H330.347C331.252 531.071 331.986 530.407 331.986 529.587V524.13H279.269Z" fill="white"/>
<path d="M432.745 203.348C447.955 210.199 456.753 220.325 459.135 233.722C461.058 244.314 459.135 254.865 453.362 265.38C443.706 282.966 425.732 295.73 399.439 303.672C390.271 306.44 383.473 311.406 379.041 318.566C377.495 320.924 375.902 323.596 374.259 326.589C371.167 332.22 363.62 334.516 357.402 331.715L351.546 329.078C345.33 326.278 342.795 319.441 345.886 313.81C354.696 297.764 365.593 287.807 378.581 283.931C392.615 279.738 403.821 273.989 412.203 266.683C417.04 262.417 421.029 257.43 424.164 251.719C427.398 245.827 428.485 240.551 427.425 235.889C426.359 230.549 422.579 226.867 416.076 224.841C410.024 222.907 403.954 224.638 397.87 230.038C397.567 230.298 397.266 230.565 396.967 230.84C392.593 234.863 385.607 235.344 380.59 231.992L375.673 228.708C369.585 224.64 368.795 216.64 374.014 211.68C379.197 206.751 385.151 202.983 391.876 200.373C399.164 197.551 407.512 196.901 416.914 198.422C421.862 199.182 427.14 200.823 432.745 203.348Z" fill="#FCC822"/>
<path d="M408.383 365.649C408.793 365.649 409.146 365.396 409.25 365.037C409.659 363.603 411.086 362.541 412.798 362.541C414.511 362.541 415.937 363.603 416.346 365.037C416.448 365.396 416.802 365.649 417.213 365.649C417.787 365.649 418.242 365.162 418.101 364.655C417.502 362.501 415.363 360.904 412.798 360.904C410.232 360.904 408.093 362.501 407.495 364.655C407.354 365.162 407.807 365.649 408.383 365.649Z" fill="#F05B4E"/>
<path d="M424.313 364.213C423.477 360.615 420.665 357.642 416.895 356.342C416.186 356.098 415.381 356.213 414.82 356.673C414.196 357.181 413.516 357.726 412.798 357.726C412.043 357.726 411.33 357.153 410.681 356.621C410.127 356.168 409.341 356.041 408.638 356.271C405.241 357.375 402.536 359.844 401.365 362.992C401.003 363.966 401.53 365.094 402.617 365.39C403.682 365.678 404.734 365.137 405.054 364.234C406.143 361.16 409.393 359.013 413.116 359.208C416.841 359.403 419.796 361.874 420.487 365.04C420.661 365.835 421.396 366.423 422.287 366.47H422.289C423.598 366.47 424.583 365.374 424.313 364.213Z" fill="#361710"/>
<path d="M348.478 445.152C348.478 445.152 373.35 445.754 384.181 454.077C395.01 462.4 397.472 462.549 397.472 462.549C397.472 462.549 399.044 445.799 404.905 434.925C410.767 424.051 403.379 427.027 401.903 428.661C400.426 430.296 381.884 444.404 381.884 444.404L378.215 445.02L348.478 445.152Z" fill="#727293"/>
<path d="M495.964 280.4C495.964 280.4 494.326 286.092 497.022 287.391C499.722 288.691 506.619 289.372 506.689 287.391C506.756 285.411 508.67 283.493 505.255 282.131C501.838 280.771 497.808 280.4 497.808 280.4H495.964Z" fill="#C9BDBD"/>
<path d="M561.994 213.662C561.923 213.674 561.853 213.687 561.782 213.701C561.226 213.81 560.899 213.912 560.899 213.912V213.935C560.768 213.978 560.634 214.017 560.505 214.068C553.323 216.976 553.323 222.928 553.323 222.928L557.755 234.834C557.755 234.834 558.994 234.888 560.849 234.734L560.72 288.651L561.364 288.986C566.175 291.486 572.087 291.497 576.907 289.011L577.608 288.651C577.608 288.651 578.469 266.991 578.787 237.552C579.06 212.493 565.913 212.967 561.994 213.662Z" fill="#161616"/>
<path d="M551.533 222.162L554.189 218.99C554.526 218.589 555.149 218.494 555.607 218.78C558.507 220.585 567.962 227.137 566.671 235.027L551.533 222.162Z" fill="white"/>
<path d="M540.387 272.434C540.393 272.402 543.101 272.127 543.265 272.101C545.634 271.706 547.958 271.06 550.165 270.187C556.986 267.486 562.231 262.502 564.825 256.169C566.687 251.62 567.21 246.699 567.007 241.877C566.711 234.805 564.908 227.078 558.032 222.756C552.177 219.077 549.309 220.194 549.309 220.194C549.309 220.194 540.39 272.416 540.387 272.434Z" fill="#161616"/>
<path d="M541.981 263.374L530.055 262.689C530.055 262.689 528.414 279.578 528.369 279.576C528.369 279.576 529.009 282.998 534.295 283.379C539.582 283.755 541.134 280.307 541.134 280.307C541.096 280.211 541.981 263.374 541.981 263.374Z" fill="#F8D0B7"/>
<path d="M534.722 276.46C530.808 276.18 529.388 274.939 528.914 274.313C529.408 269.357 530.055 262.69 530.055 262.69L541.981 263.375C541.981 263.375 541.643 269.825 541.393 274.764C541.069 275.149 539.4 276.793 534.722 276.46Z" fill="#EFBDAC"/>
<path d="M536.88 268.775L524.954 268.089C524.954 268.089 524.651 270.242 524.386 272.071C524.346 272.337 527.74 273.003 528.109 273.078C530.998 273.664 533.897 273.489 536.785 272.997C536.822 271.11 536.88 268.775 536.88 268.775Z" fill="#CF9166"/>
<path d="M510.549 237.847C510.884 235.677 511.137 233.836 513.065 231.785C517.779 226.771 525.302 223.908 532.524 223.919C543.388 223.936 554.653 227.708 557.557 238.001C558.551 241.526 558.575 245.223 558.19 248.846C557.585 254.559 555.896 260.333 552.09 264.922C547.529 270.421 539.994 273.791 532.402 273.727C520.808 273.63 511.529 267.987 508.41 258.826C506.165 252.231 508.261 247.066 509.994 240.653C510.268 239.642 510.415 238.718 510.549 237.847Z" fill="#F8D0B7"/>
<path d="M562.232 250.039C562.259 250.07 562.292 250.114 562.292 250.114C562.292 250.114 562.287 250.068 562.275 249.984C562.26 249.902 562.24 249.773 562.182 249.617C562.122 249.463 562.042 249.269 561.882 249.064C561.725 248.858 561.501 248.626 561.146 248.434C560.972 248.335 560.766 248.25 560.539 248.177C560.425 248.144 560.306 248.112 560.181 248.092L560.087 248.074L559.982 248.06L559.82 248.038C559.72 248.021 559.586 248.013 559.447 248.008C559.306 247.998 559.17 247.996 559.042 248.001C558.908 248.002 558.773 248.005 558.639 248.02C558.505 248.032 558.37 248.044 558.237 248.067C558.083 248.09 557.934 248.129 557.783 248.163C557.795 247.239 557.76 246.316 557.659 245.4C558.981 245.231 560.46 245.347 562.1 245.97C569.009 248.6 565.589 260.6 554.685 261.099C554.967 260.569 555.22 260.03 555.457 259.485C561.298 257.95 563.447 252.739 562.232 250.039Z" fill="#F8D0B7"/>
<path d="M558.844 248.826C558.942 248.807 559.039 248.796 559.137 248.785C559.237 248.77 559.33 248.762 559.416 248.759C559.501 248.753 559.59 248.747 559.708 248.752L559.873 248.753L559.914 248.754H559.934H559.945C559.935 248.753 559.972 248.756 559.925 248.752H559.929L559.992 248.756C560.08 248.76 560.161 248.772 560.243 248.78C560.407 248.805 560.565 248.839 560.709 248.889C561.294 249.091 561.689 249.443 561.93 249.693C562.049 249.821 562.142 249.923 562.2 250C562.22 250.025 562.219 250.022 562.232 250.038C563.447 252.739 561.298 257.95 555.457 259.483C556.571 256.914 557.228 254.196 557.556 251.49C557.65 250.714 557.718 249.936 557.756 249.155C558.019 249.053 558.282 248.946 558.55 248.885C558.647 248.859 558.746 248.843 558.844 248.826Z" fill="#FFB7A1"/>
<path d="M558.64 248.02C558.774 248.004 558.908 248.001 559.041 248C559.171 247.995 559.305 247.997 559.446 248.007C559.587 248.013 559.721 248.021 559.82 248.038L559.981 248.06L560.086 248.074L560.18 248.092C560.305 248.113 560.426 248.144 560.54 248.178C560.767 248.249 560.972 248.335 561.147 248.434C561.5 248.626 561.724 248.857 561.882 249.064C562.043 249.27 562.123 249.462 562.181 249.617C562.24 249.774 562.261 249.901 562.275 249.984C562.286 250.068 562.291 250.113 562.291 250.113C562.291 250.113 562.258 250.071 562.233 250.039C562.218 250.022 562.221 250.026 562.2 250C562.143 249.924 562.048 249.822 561.93 249.694C561.689 249.444 561.294 249.092 560.709 248.89C560.565 248.84 560.406 248.805 560.244 248.781C560.16 248.773 560.079 248.761 559.993 248.757L559.929 248.752H559.925C559.972 248.757 559.935 248.754 559.944 248.755H559.935H559.913L559.873 248.754L559.709 248.751C559.589 248.746 559.5 248.754 559.415 248.76C559.329 248.763 559.237 248.77 559.137 248.786C559.038 248.797 558.941 248.808 558.843 248.827C558.746 248.844 558.647 248.859 558.551 248.886C558.281 248.947 558.02 249.054 557.756 249.155C557.773 248.826 557.78 248.495 557.783 248.163C557.935 248.129 558.084 248.09 558.236 248.067C558.369 248.044 558.506 248.032 558.64 248.02Z" fill="#FFA792"/>
<path d="M527.314 248.46C527.314 248.46 527.616 253.183 525.199 252.677C520.517 251.703 519.971 260.875 527.304 257.801C530.073 256.641 529.647 248.636 529.647 248.636L527.314 248.46Z" fill="#F48470"/>
<path d="M519.232 260.989C519.094 262.957 517.193 264.449 514.984 264.322C512.774 264.194 511.093 262.497 511.229 260.53C511.368 258.562 513.271 257.071 515.48 257.197C517.69 257.324 519.371 259.021 519.232 260.989Z" fill="#FFB7A1"/>
<path d="M548.089 260.344C547.951 262.313 546.048 263.804 543.836 263.677C541.63 263.551 539.95 261.855 540.085 259.887C540.225 257.92 542.126 256.428 544.334 256.555C546.545 256.681 548.227 258.379 548.089 260.344Z" fill="#FFB7A1"/>
<path d="M512.115 245.589C512.115 245.589 512.228 245.456 512.474 245.261C512.596 245.165 512.747 245.042 512.936 244.929C513.119 244.808 513.337 244.685 513.584 244.561C513.83 244.437 514.106 244.316 514.402 244.206C514.703 244.1 515.023 243.987 515.368 243.91C515.707 243.818 516.067 243.76 516.435 243.706C516.804 243.646 517.184 243.64 517.561 243.609C517.938 243.61 518.317 243.612 518.688 243.633C519.057 243.667 519.419 243.711 519.765 243.76C520.11 243.83 520.441 243.906 520.75 243.979C521.063 244.058 521.343 244.167 521.604 244.256C521.863 244.349 522.1 244.431 522.299 244.537C522.5 244.633 522.673 244.725 522.813 244.798C523.091 244.945 523.244 245.042 523.244 245.042C523.244 245.042 523.051 245.04 522.731 245.013C522.572 245.001 522.378 244.987 522.157 244.963C521.944 244.933 521.694 244.922 521.426 244.903C521.16 244.887 520.877 244.845 520.576 244.832C520.273 244.817 519.959 244.802 519.635 244.775C519.308 244.767 518.976 244.766 518.635 244.749C518.298 244.752 517.956 244.755 517.612 244.76C517.44 244.767 517.268 244.776 517.1 244.785C516.929 244.794 516.759 244.793 516.593 244.814C516.424 244.83 516.258 244.844 516.093 244.856C515.926 244.863 515.769 244.895 515.607 244.911C515.286 244.941 514.979 244.992 514.683 245.033C514.535 245.051 514.395 245.087 514.257 245.107C514.118 245.131 513.982 245.15 513.855 245.182C513.598 245.231 513.359 245.279 513.151 245.328C512.936 245.373 512.754 245.423 512.597 245.459C512.451 245.503 512.324 245.527 512.245 245.554C512.159 245.577 512.115 245.589 512.115 245.589Z" fill="#161616"/>
<path d="M543.779 244.02C543.779 244.02 543.661 243.89 543.41 243.7C543.281 243.611 543.129 243.491 542.939 243.382C542.749 243.267 542.524 243.15 542.278 243.032C542.028 242.917 541.748 242.806 541.444 242.704C541.137 242.608 540.814 242.504 540.468 242.439C540.127 242.354 539.764 242.307 539.395 242.264C539.024 242.215 538.645 242.219 538.268 242.199C537.888 242.211 537.512 242.225 537.142 242.258C536.773 242.302 536.411 242.356 536.066 242.418C535.725 242.496 535.398 242.581 535.09 242.664C534.785 242.751 534.507 242.869 534.248 242.964C533.992 243.066 533.758 243.157 533.565 243.266C533.368 243.368 533.198 243.465 533.063 243.542C532.785 243.699 532.638 243.8 532.638 243.8C532.638 243.8 532.829 243.794 533.149 243.756C533.308 243.741 533.502 243.72 533.72 243.69C533.935 243.652 534.181 243.635 534.449 243.606C534.713 243.584 534.996 243.535 535.299 243.511C535.6 243.489 535.912 243.463 536.235 243.427C536.56 243.411 536.896 243.398 537.235 243.37C537.572 243.363 537.913 243.358 538.257 243.35C538.428 243.353 538.6 243.357 538.771 243.361C538.938 243.366 539.108 243.36 539.278 243.378C539.445 243.39 539.613 243.397 539.777 243.402C539.943 243.406 540.105 243.433 540.265 243.444C540.589 243.464 540.895 243.506 541.194 243.54C541.343 243.55 541.482 243.584 541.622 243.6C541.762 243.619 541.899 243.636 542.027 243.66C542.284 243.705 542.526 243.744 542.736 243.789C542.952 243.826 543.135 243.871 543.289 243.902C543.442 243.943 543.568 243.963 543.65 243.987C543.734 244.007 543.779 244.02 543.779 244.02Z" fill="#050607"/>
<path d="M536.195 248.65C535.791 249.999 536.677 251.366 538.168 251.704C539.659 252.042 541.194 251.223 541.594 249.873C541.997 248.524 541.114 247.155 539.622 246.817C538.131 246.48 536.596 247.3 536.195 248.65Z" fill="#050607"/>
<path d="M537.318 248.198C537.173 248.686 537.54 249.193 538.138 249.327C538.736 249.464 539.339 249.178 539.485 248.689C539.629 248.2 539.262 247.694 538.664 247.559C538.067 247.422 537.464 247.71 537.318 248.198Z" fill="white"/>
<path d="M520.342 248.062C520.744 249.411 519.86 250.78 518.369 251.118C516.876 251.456 515.343 250.637 514.942 249.286C514.539 247.937 515.422 246.568 516.915 246.23C518.406 245.894 519.941 246.714 520.342 248.062Z" fill="#050607"/>
<path d="M519.218 247.61C519.364 248.099 518.996 248.605 518.399 248.74C517.8 248.877 517.197 248.591 517.053 248.1C516.906 247.613 517.274 247.106 517.872 246.972C518.469 246.835 519.073 247.122 519.218 247.61Z" fill="white"/>
<path d="M546.195 237.089C546.195 237.089 555.548 263.018 546.991 270.77C546.991 270.77 559.421 264.599 560.553 236.302L546.195 237.089Z" fill="#161616"/>
<path d="M558.803 242.492C562.015 242.024 562.24 229.615 561.752 227.924C560.077 222.108 550.91 218.534 545.313 216.633C536.497 213.64 525.414 213.148 517.439 218.335C513.166 221.117 511.068 225.03 509.075 229.296C508.707 230.083 504.725 240 504.702 240C504.703 240 535.06 241.4 534.821 241.388L537.69 241.52C537.69 241.52 556.545 242.82 558.803 242.492" fill="#161616"/>
<path d="M582.657 319.637H582.459C580.14 319.647 577.881 320.385 575.879 321.469C578.006 323.992 580.395 326.317 583.467 327.933C583.67 328.04 583.866 328.133 584.055 328.219C584.451 327.806 584.822 327.374 585.149 326.912C587.282 323.923 587.585 319.706 582.657 319.637Z" fill="#E8B79E"/>
<path d="M515.376 396.194C515.376 396.194 516.898 438.51 516.999 442.45C517.099 446.389 523.148 481.656 523.879 490.298C524.612 498.94 521.992 516.694 519.869 523.773L517.292 529.778C517.292 529.778 525.559 532.774 528.772 531.47C533.827 529.416 534.841 522.14 536.115 517.859C537.464 513.321 538.464 508.619 538.25 503.897C538.043 499.357 535.289 495.91 534.24 491.582C531.381 479.795 536.249 467.599 536.943 455.806C537.563 445.284 536.002 434.787 534.264 424.407C532.641 414.727 537.589 406.154 537.077 396.58C537.077 396.58 517.365 383.861 515.154 394.189" fill="#EFC8B1"/>
<path d="M518.958 525.892C518.83 526.413 520.518 526.965 520.9 527.121C523.685 528.264 528.101 529.367 530.394 526.806C533.194 523.69 533.837 518.283 535.024 514.52C536.366 510.26 537.763 505.361 537.348 500.887L537.151 498.779C537.151 498.779 543.701 502.404 543.289 507.436C542.877 512.469 537.289 520.907 536.94 526.171C536.725 529.415 534.983 532.64 532.058 534.567C527.587 537.511 519.866 537.302 515.086 535.082C513.319 534.261 511.925 530.444 514.24 529.48C517.127 528.278 521.797 515.988 521.309 515.574L519.869 523.772C519.869 523.772 518.958 525.887 518.958 525.892Z" fill="#122738"/>
<path d="M542.98 508.68C542.98 508.68 541.123 519.514 542.017 525.575L540.069 526.157L538.126 518.03L542.98 508.68Z" fill="#312E2F"/>
<path d="M559.707 508.68C559.707 508.68 558.138 524.898 559.033 530.961L556.187 531.033L554.854 518.03L559.707 508.68Z" fill="#0C1B26"/>
<path d="M530.191 396.194C530.191 396.194 533.624 438.51 533.725 442.45C533.826 446.389 539.873 481.656 540.606 490.298C541.339 498.94 538.719 516.694 536.596 523.773L534.019 529.778C534.019 529.778 542.287 532.774 545.499 531.47C550.554 529.416 551.568 522.14 552.841 517.859C554.19 513.321 555.19 508.619 554.977 503.897C554.771 499.357 552.016 495.91 550.965 491.582C548.108 479.795 552.976 467.599 553.67 455.806C554.29 445.284 552.729 434.787 550.991 424.407C549.368 414.727 554.315 406.154 553.804 396.58C553.804 396.58 532.181 383.861 529.969 394.189" fill="#F8D0B7"/>
<path d="M535.685 525.892C535.557 526.413 537.245 526.965 537.627 527.121C540.412 528.264 544.828 529.367 547.121 526.806C549.923 523.69 550.564 518.283 551.75 514.52C553.093 510.26 554.49 505.361 554.075 500.887L553.878 498.779C553.878 498.779 560.428 502.404 560.017 507.436C559.604 512.469 554.016 520.907 553.667 526.171C553.452 529.415 551.711 532.64 548.785 534.567C544.314 537.511 536.593 537.302 531.813 535.082C530.046 534.261 528.652 530.444 530.967 529.48C533.854 528.278 538.524 515.988 538.036 515.574L536.596 523.772C536.596 523.772 535.686 525.887 535.685 525.892Z" fill="#122738"/>
<path d="M552.045 305.273C553.672 298.316 559.357 291.205 559.705 289.643C550.741 281.532 542.741 278.651 540.859 278.12L529.713 278.164C526.731 279.262 523.726 280.306 520.735 281.381C519.61 281.784 518.56 281.997 517.851 282.884C516.982 283.968 516.54 285.828 515.968 287.086C514.402 290.524 512.792 294.014 512.019 297.699C511.52 300.078 512.141 302.641 513.205 305.273H552.045Z" fill="#F8D0B7"/>
<path d="M563.208 358.418C559.669 349.247 554.895 340.39 553.11 330.743C546.907 333.126 523.319 332.398 518.721 328.714C517.714 340.7 510.928 352.158 507.705 363.828C505.691 371.121 504.01 378.537 503.707 386.068C503.394 393.948 506.529 417.864 507.166 426.667C532.714 441.64 561.747 427.279 562.905 424.563C568.976 410.327 568.68 389.031 567.178 373.695C566.66 368.396 565.115 363.361 563.208 358.418Z" fill="#122738"/>
<path d="M507.705 363.827C507.571 364.31 507.444 364.795 507.314 365.279C516.394 369.68 551.778 372.328 565.145 363.964C564.571 362.098 563.915 360.251 563.207 358.418C559.808 349.608 555.276 341.085 553.342 331.877L547.931 331.765C542.341 332.351 534.286 332.208 527.927 331.355L520.5 331.202C520.5 331.202 517.825 349.568 509.209 359.044C508.658 360.637 508.145 362.23 507.705 363.827Z" fill="#0B1C28"/>
<path d="M528.895 295.651C528.873 295.305 528.826 294.968 528.776 294.63C528.767 294.574 528.757 294.519 528.747 294.462C528.093 290.498 525.589 287.181 522.371 284.969C518.329 282.321 514.024 280.039 509.787 277.666C501.28 272.99 493.985 269.226 485.379 264.697C482.711 260.237 480.002 255.805 477.182 251.444C475.758 249.265 474.334 247.087 472.733 245.018C470.93 243.113 469.615 240.908 468.329 238.636C465.73 234.139 463.492 229.343 459.916 225.461C457.963 223.427 455.837 221.573 453.613 219.827C453.813 220.142 460.546 230.779 459.856 241.437C459.856 241.437 459.843 241.44 459.833 241.443C460.641 241.873 461.443 242.327 462.251 242.756L463.124 243.235L463.559 243.474C463.721 243.55 463.859 243.64 463.855 243.721C464.081 244.146 464.305 244.868 464.505 245.466C465.307 247.989 466.134 250.521 467.114 252.98C469.064 257.892 471.507 262.624 474.893 266.667C476.585 268.673 478.486 270.555 480.656 272.088C482.787 273.649 484.951 275.172 487.13 276.674C491.493 279.675 494.66 281.76 499.225 284.5C503.795 287.232 508.461 289.841 513.33 292.141C518.248 294.354 523.276 296.437 528.922 297.214C528.926 297.125 528.914 297.039 528.917 296.95C528.933 296.702 528.942 296.254 528.895 295.651Z" fill="#EFC8B1"/>
<path d="M456.692 225.498C456.54 227.033 455.596 230.951 454.956 232.345C453.739 232.179 452.547 231.725 451.491 231.149C450.319 230.545 449.417 229.652 448.287 228.865C447.718 228.491 447.103 228.16 446.406 227.943C445.705 227.775 444.911 227.569 443.984 228.105C443.877 228.18 443.725 228.295 443.656 228.512C443.566 228.741 443.636 228.808 443.636 228.958C443.697 229.163 443.782 229.332 443.874 229.483C444.061 229.781 444.267 230.05 444.486 230.302C444.92 230.811 445.388 231.278 445.864 231.735C447.734 233.58 449.842 235.205 451.778 236.938L453.207 238.29C453.722 238.753 454.325 239.108 454.949 239.405C456.198 240 457.538 240.363 458.75 240.883C459.185 241.084 459.608 241.317 460.034 241.548V229.801C458.381 229.357 458.149 226.26 456.692 225.498Z" fill="#EFC8B1"/>
<path d="M499.268 271.998C499.268 271.998 501.532 275.327 500.815 282.008C500.098 288.69 497.023 287.391 497.023 287.391C497.023 287.391 504.708 292.68 512.392 296.393C520.077 300.106 519.769 282.379 519.769 282.379C519.769 282.379 500.078 269.784 499.268 271.998Z" fill="white"/>
<path d="M518.57 330.727C518.542 331.202 518.309 331.802 518.68 332.033C530.485 339.386 553.376 331.716 553.213 330.805C552.419 326.418 552.29 321.887 553.221 317.508C555.315 307.648 563.349 298.091 559.833 287.713C559.82 287.677 559.808 287.64 559.793 287.604C558.61 284.407 546.95 280.7 545.934 280.105C546.276 280.917 545.335 281.854 545.012 282.219C543.423 284.01 540.923 285.128 538.535 285.763C535.764 286.502 532.857 286.8 529.973 286.699C528.355 286.641 526.731 286.454 525.145 286.16C524.172 285.981 522.97 285.7 522.321 284.975C521.127 283.643 522.256 281.706 522.992 280.416C522.992 280.416 521.581 280.895 519.771 280.926C517.525 280.965 510.652 276.836 510.652 276.836C509.387 280.365 511.323 294.406 509.817 297.825C508.869 299.977 508.372 302.346 508.836 304.625C509.586 308.308 512.629 311.109 513.933 314.598C515.587 319.027 518.851 325.903 518.57 330.727Z" fill="white"/>
<path d="M518.132 326.5C518.132 326.5 514.82 349.264 503.687 357.183C495.351 363.111 547.546 369.845 563.438 358.83C564.114 358.36 564.214 357.466 563.661 356.878C562.785 355.943 561.436 354.006 559.704 349.988C556.485 342.519 552.724 327.21 552.724 327.21L518.132 326.5Z" fill="white"/>
<path d="M588.145 328.003C587.298 328.965 585.832 329.178 583.468 327.933C580.272 326.25 577.812 323.807 575.621 321.165C572.827 317.798 569.504 314.81 566.325 311.726C562.032 307.559 557.53 303.468 553.59 299.022C550.372 295.392 547.807 292.634 549.31 287.567C549.538 286.795 549.87 286.027 550.454 285.421C551.34 284.499 552.746 284.261 554.029 284.399C557.226 284.747 559.365 286.786 561.371 288.814C563.461 290.928 565.783 292.874 567.973 294.905C572.648 299.247 577.218 303.718 581.073 308.684C583.586 311.923 586.265 315.126 588.007 318.787C589.776 322.508 589.873 326.042 588.145 328.003Z" fill="#EFC8B1"/>
<path d="M582.657 319.637H582.459C580.14 319.647 577.881 320.385 575.879 321.469C578.006 323.992 580.395 326.317 583.467 327.933C583.67 328.04 583.866 328.133 584.055 328.219C584.451 327.806 584.822 327.374 585.149 326.912C587.282 323.923 587.585 319.706 582.657 319.637Z" fill="#E8B79E"/>
<path d="M584.859 320.576C584.794 320.584 584.727 320.593 584.662 320.601C582.081 320.955 579.723 322.209 577.778 323.793C573.642 327.16 570.239 331.584 566.535 335.358C563.652 338.296 560.765 341.552 557.577 344.403C557.776 344.596 557.946 344.812 558.072 345.064C559.318 347.56 559.782 349.111 561.498 351.369C564.604 346.317 577.6 339.001 584.828 332.018C586.256 330.637 587.623 329.168 588.49 327.447C590.121 324.21 589.745 319.996 584.859 320.576Z" fill="#EFC8B1"/>
<path d="M557.395 348.482C557.389 348.49 553.877 352.164 553.2 352.102C552.523 352.041 551.631 351.253 551.631 351.253L556.237 345.822C556.237 345.822 551.378 349.991 550.198 350.06C549.016 350.131 548.135 349.256 548.135 349.256L554.357 343.351C554.357 343.351 550.255 347.763 548.842 348.166C547.428 348.571 546.343 347.764 546.343 347.764L552.353 341.133L552.139 342.177C552.139 342.177 549.178 344.212 548.026 344.019C546.874 343.827 545.964 343.213 545.964 343.213C545.964 343.213 549.118 341.195 550.745 339.747C552.37 338.3 554.006 338.536 554.006 338.536C556.917 340.717 558.724 344.043 560.581 347.004C562.017 349.293 562.055 353.678 562.055 353.678C562.055 353.678 561.152 355.158 557.395 348.482Z" fill="#F8D0B7"/>
<path d="M513.285 236.826C513.285 236.826 508.121 245.827 508.41 258.826C508.41 258.826 498.747 247.374 511.358 231.011L513.285 236.826Z" fill="#161616"/>
<path d="M563.972 312.14C563.972 312.14 575.469 310.656 577.797 302.859C577.797 302.859 561.152 285.548 553.969 283.406C546.785 281.266 543.642 288.752 547.059 294.012C550.474 299.271 563.972 312.14 563.972 312.14Z" fill="white"/>
<path d="M509.963 297.421C509.963 297.421 510.461 295.16 512.458 292.655C514.456 290.149 510.449 291.695 506.572 293.321C506.572 293.321 509.99 295.047 509.984 296.162C509.982 296.789 509.963 297.421 509.963 297.421Z" fill="#E1E4E5"/>
<path d="M527.898 264.229C528.308 264.229 528.661 263.976 528.765 263.617C529.174 262.182 530.6 261.121 532.313 261.121C534.024 261.121 535.452 262.182 535.861 263.617C535.963 263.976 536.317 264.229 536.728 264.229C537.302 264.229 537.757 263.742 537.616 263.235C537.017 261.081 534.878 259.484 532.313 259.484C529.747 259.484 527.608 261.081 527.01 263.235C526.869 263.742 527.322 264.229 527.898 264.229Z" fill="#F05B4E"/>
<defs>
<filter id="filter0_d_6_143" x="317.727" y="176.447" width="42.3474" height="41.1425" filterUnits="userSpaceOnUse" color-interpolation-filters="sRGB">
<feFlood flood-opacity="0" result="BackgroundImageFix"/>
<feColorMatrix in="SourceAlpha" type="matrix" values="0 0 0 0 0 0 0 0 0 0 0 0 0 0 0 0 0 0 127 0" result="hardAlpha"/>
<feMorphology radius="6.33402" operator="erode" in="SourceAlpha" result="effect1_dropShadow_6_143"/>
<feOffset dy="9.50103"/>
<feGaussianBlur stdDeviation="10.5567"/>
<feColorMatrix type="matrix" values="0 0 0 0 0.243137 0 0 0 0 0.741176 0 0 0 0 1 0 0 0 0.45 0"/>
<feBlend mode="normal" in2="BackgroundImageFix" result="effect1_dropShadow_6_143"/>
<feBlend mode="normal" in="SourceGraphic" in2="effect1_dropShadow_6_143" result="shape"/>
</filter>
<filter id="filter1_d_6_143" x="663.875" y="325.491" width="42.3474" height="41.1425" filterUnits="userSpaceOnUse" color-interpolation-filters="sRGB">
<feFlood flood-opacity="0" result="BackgroundImageFix"/>
<feColorMatrix in="SourceAlpha" type="matrix" values="0 0 0 0 0 0 0 0 0 0 0 0 0 0 0 0 0 0 127 0" result="hardAlpha"/>
<feMorphology radius="6.33402" operator="erode" in="SourceAlpha" result="effect1_dropShadow_6_143"/>
<feOffset dy="9.50103"/>
<feGaussianBlur stdDeviation="10.5567"/>
<feColorMatrix type="matrix" values="0 0 0 0 0.243137 0 0 0 0 0.741176 0 0 0 0 1 0 0 0 0.45 0"/>
<feBlend mode="normal" in2="BackgroundImageFix" result="effect1_dropShadow_6_143"/>
<feBlend mode="normal" in="SourceGraphic" in2="effect1_dropShadow_6_143" result="shape"/>
</filter>
<filter id="filter2_d_6_143" x="527.462" y="442.874" width="42.3474" height="41.1425" filterUnits="userSpaceOnUse" color-interpolation-filters="sRGB">
<feFlood flood-opacity="0" result="BackgroundImageFix"/>
<feColorMatrix in="SourceAlpha" type="matrix" values="0 0 0 0 0 0 0 0 0 0 0 0 0 0 0 0 0 0 127 0" result="hardAlpha"/>
<feMorphology radius="6.33402" operator="erode" in="SourceAlpha" result="effect1_dropShadow_6_143"/>
<feOffset dy="9.50103"/>
<feGaussianBlur stdDeviation="10.5567"/>
<feColorMatrix type="matrix" values="0 0 0 0 0.243137 0 0 0 0 0.741176 0 0 0 0 1 0 0 0 0.45 0"/>
<feBlend mode="normal" in2="BackgroundImageFix" result="effect1_dropShadow_6_143"/>
<feBlend mode="normal" in="SourceGraphic" in2="effect1_dropShadow_6_143" result="shape"/>
</filter>
<filter id="filter3_d_6_143" x="284.476" y="433.606" width="55.9887" height="53.4986" filterUnits="userSpaceOnUse" color-interpolation-filters="sRGB">
<feFlood flood-opacity="0" result="BackgroundImageFix"/>
<feColorMatrix in="SourceAlpha" type="matrix" values="0 0 0 0 0 0 0 0 0 0 0 0 0 0 0 0 0 0 127 0" result="hardAlpha"/>
<feMorphology radius="6.33402" operator="erode" in="SourceAlpha" result="effect1_dropShadow_6_143"/>
<feOffset dy="9.50103"/>
<feGaussianBlur stdDeviation="10.5567"/>
<feColorMatrix type="matrix" values="0 0 0 0 0.243137 0 0 0 0 0.741176 0 0 0 0 1 0 0 0 0.45 0"/>
<feBlend mode="normal" in2="BackgroundImageFix" result="effect1_dropShadow_6_143"/>
<feBlend mode="normal" in="SourceGraphic" in2="effect1_dropShadow_6_143" result="shape"/>
</filter>
<filter id="filter4_d_6_143" x="519.789" y="398.083" width="44.9052" height="43.4593" filterUnits="userSpaceOnUse" color-interpolation-filters="sRGB">
<feFlood flood-opacity="0" result="BackgroundImageFix"/>
<feColorMatrix in="SourceAlpha" type="matrix" values="0 0 0 0 0 0 0 0 0 0 0 0 0 0 0 0 0 0 127 0" result="hardAlpha"/>
<feMorphology radius="6.33402" operator="erode" in="SourceAlpha" result="effect1_dropShadow_6_143"/>
<feOffset dy="9.50103"/>
<feGaussianBlur stdDeviation="10.5567"/>
<feColorMatrix type="matrix" values="0 0 0 0 0.243137 0 0 0 0 0.741176 0 0 0 0 1 0 0 0 0.45 0"/>
<feBlend mode="normal" in2="BackgroundImageFix" result="effect1_dropShadow_6_143"/>
<feBlend mode="normal" in="SourceGraphic" in2="effect1_dropShadow_6_143" result="shape"/>
</filter>
<filter id="filter5_d_6_143" x="108.845" y="397.31" width="44.9052" height="43.4593" filterUnits="userSpaceOnUse" color-interpolation-filters="sRGB">
<feFlood flood-opacity="0" result="BackgroundImageFix"/>
<feColorMatrix in="SourceAlpha" type="matrix" values="0 0 0 0 0 0 0 0 0 0 0 0 0 0 0 0 0 0 127 0" result="hardAlpha"/>
<feMorphology radius="6.33402" operator="erode" in="SourceAlpha" result="effect1_dropShadow_6_143"/>
<feOffset dy="9.50103"/>
<feGaussianBlur stdDeviation="10.5567"/>
<feColorMatrix type="matrix" values="0 0 0 0 0.243137 0 0 0 0 0.741176 0 0 0 0 1 0 0 0 0.45 0"/>
<feBlend mode="normal" in2="BackgroundImageFix" result="effect1_dropShadow_6_143"/>
<feBlend mode="normal" in="SourceGraphic" in2="effect1_dropShadow_6_143" result="shape"/>
</filter>
<filter id="filter6_d_6_143" x="438.794" y="460.635" width="37.232" height="36.509" filterUnits="userSpaceOnUse" color-interpolation-filters="sRGB">
<feFlood flood-opacity="0" result="BackgroundImageFix"/>
<feColorMatrix in="SourceAlpha" type="matrix" values="0 0 0 0 0 0 0 0 0 0 0 0 0 0 0 0 0 0 127 0" result="hardAlpha"/>
<feMorphology radius="6.33402" operator="erode" in="SourceAlpha" result="effect1_dropShadow_6_143"/>
<feOffset dy="9.50103"/>
<feGaussianBlur stdDeviation="10.5567"/>
<feColorMatrix type="matrix" values="0 0 0 0 0.243137 0 0 0 0 0.741176 0 0 0 0 1 0 0 0 0.45 0"/>
<feBlend mode="normal" in2="BackgroundImageFix" result="effect1_dropShadow_6_143"/>
<feBlend mode="normal" in="SourceGraphic" in2="effect1_dropShadow_6_143" result="shape"/>
</filter>
<linearGradient id="paint0_linear_6_143" x1="332.507" y1="181.725" x2="346.344" y2="183.154" gradientUnits="userSpaceOnUse">
<stop stop-color="#FCC822"/>
<stop offset="1" stop-color="#FFDD72"/>
</linearGradient>
<linearGradient id="paint1_linear_6_143" x1="678.655" y1="330.769" x2="692.492" y2="332.198" gradientUnits="userSpaceOnUse">
<stop stop-color="#FCC822"/>
<stop offset="1" stop-color="#FFDD72"/>
</linearGradient>
<linearGradient id="paint2_linear_6_143" x1="542.242" y1="448.152" x2="556.079" y2="449.581" gradientUnits="userSpaceOnUse">
<stop stop-color="#FCC822"/>
<stop offset="1" stop-color="#FFDD72"/>
</linearGradient>
<linearGradient id="paint3_linear_6_143" x1="299.256" y1="438.884" x2="327.853" y2="441.837" gradientUnits="userSpaceOnUse">
<stop stop-color="#FCC822"/>
<stop offset="1" stop-color="#FFDD72"/>
</linearGradient>
<linearGradient id="paint4_linear_6_143" x1="534.568" y1="403.362" x2="551.173" y2="405.076" gradientUnits="userSpaceOnUse">
<stop stop-color="#FCC822"/>
<stop offset="1" stop-color="#FFDD72"/>
</linearGradient>
<linearGradient id="paint5_linear_6_143" x1="123.625" y1="402.588" x2="140.229" y2="404.303" gradientUnits="userSpaceOnUse">
<stop stop-color="#FCC822"/>
<stop offset="1" stop-color="#FFDD72"/>
</linearGradient>
<linearGradient id="paint6_linear_6_143" x1="453.573" y1="465.914" x2="461.875" y2="466.771" gradientUnits="userSpaceOnUse">
<stop stop-color="#FDC68A"/>
<stop offset="1" stop-color="#FCC822"/>
</linearGradient>
<linearGradient id="paint7_linear_6_143" x1="468.919" y1="283.662" x2="468.919" y2="292.929" gradientUnits="userSpaceOnUse">
<stop stop-color="#FCC822"/>
<stop offset="1" stop-color="#FFDD72"/>
</linearGradient>
<linearGradient id="paint8_linear_6_143" x1="494.497" y1="312.763" x2="494.497" y2="322.03" gradientUnits="userSpaceOnUse">
<stop stop-color="#FCC822"/>
<stop offset="1" stop-color="#FFDD72"/>
</linearGradient>
<linearGradient id="paint9_linear_6_143" x1="510.696" y1="315.08" x2="510.696" y2="319.714" gradientUnits="userSpaceOnUse">
<stop stop-color="#FCC822"/>
<stop offset="1" stop-color="#FFDD72"/>
</linearGradient>
<linearGradient id="paint10_linear_6_143" x1="2.44023" y1="0" x2="2.44023" y2="4.88045" gradientUnits="userSpaceOnUse">
<stop stop-color="#FCC822"/>
<stop offset="1" stop-color="#FFDD72"/>
</linearGradient>
<linearGradient id="paint11_linear_6_143" x1="494.222" y1="329.511" x2="494.222" y2="334.627" gradientUnits="userSpaceOnUse">
<stop stop-color="#FCC822"/>
<stop offset="1" stop-color="#FFDD72"/>
</linearGradient>
<linearGradient id="paint12_linear_6_143" x1="2.44023" y1="0" x2="2.44023" y2="4.88045" gradientUnits="userSpaceOnUse">
<stop stop-color="#FCC822"/>
<stop offset="1" stop-color="#FFDD72"/>
</linearGradient>
<linearGradient id="paint13_linear_6_143" x1="478.298" y1="315.08" x2="478.298" y2="319.714" gradientUnits="userSpaceOnUse">
<stop stop-color="#FCC822"/>
<stop offset="1" stop-color="#FFDD72"/>
</linearGradient>
<linearGradient id="paint14_linear_6_143" x1="2.44023" y1="0" x2="2.44023" y2="4.88045" gradientUnits="userSpaceOnUse">
<stop stop-color="#FCC822"/>
<stop offset="1" stop-color="#FFDD72"/>
</linearGradient>
<linearGradient id="paint15_linear_6_143" x1="494.222" y1="300.166" x2="494.222" y2="305.282" gradientUnits="userSpaceOnUse">
<stop stop-color="#FCC822"/>
<stop offset="1" stop-color="#FFDD72"/>
</linearGradient>
<linearGradient id="paint16_linear_6_143" x1="2.44023" y1="0" x2="2.44023" y2="4.88045" gradientUnits="userSpaceOnUse">
<stop stop-color="#FCC822"/>
<stop offset="1" stop-color="#FFDD72"/>
</linearGradient>
</defs>
</svg>
