<svg width="200" height="269" viewBox="0 0 200 269" fill="none" xmlns="http://www.w3.org/2000/svg">
<g filter="url(#filter0_d_616_2)">
<path d="M116.533 149.714H79.9173C79.9173 142.23 80.4276 135.638 81.4482 129.939C82.5539 124.156 84.4251 118.968 87.0617 114.375C89.6984 109.782 93.2706 105.529 97.7785 101.617C101.776 98.2996 105.221 95.1101 108.112 92.0482C111.004 88.9863 113.216 85.8819 114.747 82.7349C116.278 79.5879 117.043 76.2283 117.043 72.6561C117.043 68.2333 116.405 64.6185 115.129 61.8118C113.939 59.005 112.11 56.9212 109.643 55.5604C107.262 54.1144 104.243 53.3915 100.585 53.3915C97.6084 53.3915 94.8016 54.1144 92.1649 55.5604C89.6133 57.0063 87.5295 59.2602 85.9135 62.3221C84.2975 65.299 83.4045 69.2539 83.2343 74.187H39.9847C40.2399 61.5141 43.0467 51.2226 48.405 43.3127C53.8484 35.3177 61.078 29.4915 70.0936 25.8342C79.1943 22.0919 89.3582 20.2207 100.585 20.2207C113.003 20.2207 123.677 22.1344 132.608 25.9618C141.538 29.7892 148.385 35.4878 153.148 43.0575C157.911 50.5422 160.293 59.7705 160.293 70.7424C160.293 78.0569 158.889 84.4359 156.083 89.8794C153.361 95.2377 149.661 100.256 144.983 104.934C140.39 109.527 135.244 114.46 129.546 119.733C124.613 124.071 121.253 128.494 119.467 133.001C117.681 137.424 116.703 142.995 116.533 149.714ZM74.6865 188.499C74.6865 182.375 76.8979 177.272 81.3206 173.189C85.7434 169.021 91.4845 166.938 98.5439 166.938C105.603 166.938 111.344 169.021 115.767 173.189C120.19 177.272 122.401 182.375 122.401 188.499C122.401 194.623 120.19 199.768 115.767 203.936C111.344 208.018 105.603 210.06 98.5439 210.06C91.4845 210.06 85.7434 208.018 81.3206 203.936C76.8979 199.768 74.6865 194.623 74.6865 188.499Z" fill="#FFB184"/>
</g>
<path d="M106.244 150.295L107.129 150.306L107.161 149.422C107.408 142.773 108.44 137.33 110.223 133.061L110.226 133.055C111.995 128.74 115.3 124.468 120.212 120.251L120.221 120.243L120.229 120.236C125.997 115.024 131.209 110.143 135.866 105.595C140.659 100.914 144.478 95.8647 147.311 90.447C150.261 84.8872 151.763 78.3786 151.851 70.9488C151.982 59.8472 149.683 50.4131 144.899 42.6952C140.121 34.8999 133.194 29.0043 124.157 25.0043C115.133 21.0103 104.355 18.9557 91.8476 18.8081C80.5204 18.6744 70.2162 20.441 60.9481 24.1246C51.7252 27.7402 44.284 33.593 38.6439 41.6703L38.6427 41.6721C33.0636 49.7021 30.1054 60.1455 29.6969 72.9336L29.6673 73.8588L30.5929 73.8697L73.8395 74.3802L74.716 74.3905L74.7565 73.515C74.9811 68.6653 75.903 64.8744 77.4614 62.0828L77.4615 62.0828L77.4666 62.0734C79.0498 59.1576 81.0439 57.0687 83.4324 55.7507C85.9512 54.409 88.6141 53.7576 91.4346 53.7909C94.9763 53.8327 97.8116 54.5666 99.9973 55.9292L100.013 55.9392L100.03 55.9485C102.288 57.2297 103.963 59.1703 105.05 61.8195L105.054 61.8302L105.059 61.8407C106.232 64.504 106.819 67.9855 106.767 72.3305C106.727 75.7679 105.953 78.9826 104.448 81.9857C102.929 85.0173 100.74 88.0216 97.8636 90.9959C94.9664 93.9919 91.5127 97.1158 87.4986 100.368L87.4907 100.374L87.4831 100.38C82.8617 104.297 79.17 108.583 76.4216 113.242C73.6744 117.899 71.7089 123.162 70.5172 129.02L70.5171 129.02L70.5151 129.03C69.4148 134.782 68.8236 141.422 68.7348 148.945L68.7241 149.852L69.6313 149.863L106.244 150.295ZM70.1572 171.775C65.4971 175.977 63.1218 181.295 63.0466 187.665C62.9714 194.036 65.2206 199.449 69.7753 203.843L69.7821 203.85C74.3503 208.167 80.2994 210.339 87.5444 210.424C94.7894 210.51 100.788 208.479 105.457 204.271L105.464 204.264C110.121 199.978 112.497 194.621 112.573 188.25C112.648 181.88 110.399 176.508 105.839 172.196C101.273 167.792 95.3233 165.576 88.0748 165.491C80.8263 165.405 74.8259 167.48 70.1572 171.775Z" stroke="white" stroke-width="1.81447"/>
<defs>
<filter id="filter0_d_616_2" x="0.924141" y="0.690403" width="198.429" height="267.96" filterUnits="userSpaceOnUse" color-interpolation-filters="sRGB">
<feFlood flood-opacity="0" result="BackgroundImageFix"/>
<feColorMatrix in="SourceAlpha" type="matrix" values="0 0 0 0 0 0 0 0 0 0 0 0 0 0 0 0 0 0 127 0" result="hardAlpha"/>
<feOffset dy="19.5303"/>
<feGaussianBlur stdDeviation="19.5303"/>
<feComposite in2="hardAlpha" operator="out"/>
<feColorMatrix type="matrix" values="0 0 0 0 0.210031 0 0 0 0 0.0633751 0 0 0 0 0.65 0 0 0 0.4 0"/>
<feBlend mode="normal" in2="BackgroundImageFix" result="effect1_dropShadow_616_2"/>
<feBlend mode="normal" in="SourceGraphic" in2="effect1_dropShadow_616_2" result="shape"/>
</filter>
</defs>
</svg>
