<svg width="171" height="38" viewBox="0 0 171 38" fill="none" xmlns="http://www.w3.org/2000/svg">
<path d="M21.48 37.8L17.88 32.96C16.8133 33.1733 15.7733 33.28 14.76 33.28C12.12 33.28 9.69333 32.6667 7.48 31.44C5.29333 30.2133 3.54667 28.5067 2.24 26.32C0.96 24.1067 0.32 21.6267 0.32 18.88C0.32 16.1333 0.96 13.6667 2.24 11.48C3.54667 9.29333 5.29333 7.58667 7.48 6.36C9.69333 5.13333 12.12 4.52 14.76 4.52C17.4 4.52 19.8133 5.13333 22 6.36C24.2133 7.58667 25.9467 9.29333 27.2 11.48C28.48 13.6667 29.12 16.1333 29.12 18.88C29.12 21.28 28.6267 23.48 27.64 25.48C26.68 27.4533 25.3333 29.0933 23.6 30.4L29.76 37.8H21.48ZM7.32 18.88C7.32 21.36 7.98667 23.3467 9.32 24.84C10.68 26.3067 12.4933 27.04 14.76 27.04C17 27.04 18.7867 26.2933 20.12 24.8C21.48 23.3067 22.16 21.3333 22.16 18.88C22.16 16.4 21.48 14.4267 20.12 12.96C18.7867 11.4667 17 10.72 14.76 10.72C12.4933 10.72 10.68 11.4533 9.32 12.92C7.98667 14.3867 7.32 16.3733 7.32 18.88ZM55.0434 10.68V33H48.2034V29.96C47.5101 30.9467 46.5634 31.7467 45.3634 32.36C44.1901 32.9467 42.8834 33.24 41.4434 33.24C39.7368 33.24 38.2301 32.8667 36.9234 32.12C35.6168 31.3467 34.6034 30.24 33.8834 28.8C33.1634 27.36 32.8034 25.6667 32.8034 23.72V10.68H39.6034V22.8C39.6034 24.2933 39.9901 25.4533 40.7634 26.28C41.5368 27.1067 42.5768 27.52 43.8834 27.52C45.2168 27.52 46.2701 27.1067 47.0434 26.28C47.8168 25.4533 48.2034 24.2933 48.2034 22.8V10.68H55.0434ZM63.3966 8.36C62.1966 8.36 61.2099 8.01333 60.4366 7.32C59.6899 6.6 59.3166 5.72 59.3166 4.68C59.3166 3.61333 59.6899 2.73333 60.4366 2.04C61.2099 1.32 62.1966 0.959998 63.3966 0.959998C64.5699 0.959998 65.5299 1.32 66.2766 2.04C67.0499 2.73333 67.4366 3.61333 67.4366 4.68C67.4366 5.72 67.0499 6.6 66.2766 7.32C65.5299 8.01333 64.5699 8.36 63.3966 8.36ZM66.7966 10.68V33H59.9566V10.68H66.7966ZM78.1534 27.36H87.8334V33H70.5134V27.56L79.7934 16.32H70.5934V10.68H87.6334V16.12L78.1534 27.36ZM109.877 4.92V10.4H98.4372V16.32H106.997V21.64H98.4372V33H91.5972V4.92H109.877ZM120.312 3.4V33H113.472V3.4H120.312ZM146.309 21.48C146.309 22.12 146.269 22.7867 146.189 23.48H130.709C130.816 24.8667 131.256 25.9333 132.029 26.68C132.829 27.4 133.802 27.76 134.949 27.76C136.656 27.76 137.842 27.04 138.509 25.6H145.789C145.416 27.0667 144.736 28.3867 143.749 29.56C142.789 30.7333 141.576 31.6533 140.109 32.32C138.642 32.9867 137.002 33.32 135.189 33.32C133.002 33.32 131.056 32.8533 129.349 31.92C127.642 30.9867 126.309 29.6533 125.349 27.92C124.389 26.1867 123.909 24.16 123.909 21.84C123.909 19.52 124.376 17.4933 125.309 15.76C126.269 14.0267 127.602 12.6933 129.309 11.76C131.016 10.8267 132.976 10.36 135.189 10.36C137.349 10.36 139.269 10.8133 140.949 11.72C142.629 12.6267 143.936 13.92 144.869 15.6C145.829 17.28 146.309 19.24 146.309 21.48ZM139.309 19.68C139.309 18.5067 138.909 17.5733 138.109 16.88C137.309 16.1867 136.309 15.84 135.109 15.84C133.962 15.84 132.989 16.1733 132.189 16.84C131.416 17.5067 130.936 18.4533 130.749 19.68H139.309ZM163.118 33L158.838 26.8L155.238 33H147.838L155.198 21.6L147.638 10.68H155.318L159.598 16.84L163.198 10.68H170.598L163.118 21.92L170.798 33H163.118Z" fill="#056EE6"/>
</svg>
